<svg width="73" height="64" viewBox="0 0 73 64" fill="none">
<path d="M25.2747 56.9999L24.5831 56.2776L25.2747 56.9999ZM10.6995 0.620628C10.49 0.109599 9.90596 -0.134886 9.39493 0.0745575L1.06721 3.48764C0.556184 3.69708 0.311701 4.28114 0.521142 4.79217C0.73059 5.3032 1.31464 5.54768 1.82567 5.33824L9.22809 2.30439L12.2619 9.70681C12.4714 10.2178 13.0554 10.4623 13.5665 10.2529C14.0775 10.0434 14.322 9.45938 14.1125 8.94835L10.6995 0.620628ZM72.5709 51.1976C65.3014 43.0222 59.242 38.3033 51.8306 38.8604C48.1594 39.1363 44.2758 40.7014 39.8708 43.5655C35.4651 46.4302 30.4754 50.6359 24.5831 56.2776L25.9662 57.7222C31.8238 52.1138 36.709 48.007 40.961 45.2423C45.2138 42.4771 48.7706 41.096 51.9805 40.8548C58.3314 40.3774 63.7965 44.3396 71.0763 52.5266L72.5709 51.1976ZM24.5831 56.2776C21.7077 59.0307 19.2732 60.4702 17.2548 60.9641C15.2903 61.4449 13.6713 61.0451 12.2843 59.9741C10.8535 58.8692 9.61312 57.002 8.59865 54.4663C7.58909 51.943 6.83511 48.8376 6.32661 45.3554C5.30975 38.3918 5.29121 30.0387 6.0897 22.0841C6.88904 14.1209 8.4994 6.63501 10.6966 1.38599L8.85172 0.613732C6.54906 6.11466 4.90957 13.8163 4.0997 21.8843C3.28897 29.961 3.30184 38.4829 4.3476 45.6444C4.87042 49.2247 5.65555 52.4943 6.74174 55.2093C7.82302 57.9119 9.23501 60.1463 11.062 61.557C12.9328 63.0017 15.1772 63.5316 17.7302 62.9068C20.2294 62.2952 22.9667 60.5941 25.9662 57.7222L24.5831 56.2776Z" fill="white"/>
</svg>
