<svg width="74" height="77" viewBox="0 0 74 77" fill="none" xmlns="http://www.w3.org/2000/svg">
<path d="M72.7437 73.9078L49.7548 47.8802C54.7973 42.3625 57.4782 35.092 57.2239 27.6244C56.9695 20.1568 53.8002 13.0852 48.3939 7.92282C42.9877 2.76045 35.7741 -0.0826686 28.2965 0.00183101C20.819 0.0863306 13.6716 3.09174 8.38358 8.37496C3.09559 13.6582 0.0871042 20.7996 0.00186183 28.271C-0.0833805 35.7425 2.76139 42.9505 7.92747 48.3528C13.0935 53.7551 20.1706 56.9226 27.6442 57.1774C35.1179 57.4322 42.3945 54.7541 47.9171 49.7162L70.9062 75.7441C71.15 75.9874 71.4804 76.1239 71.8249 76.1238C72.1694 76.1236 72.4997 75.9868 72.7433 75.7434C72.9868 75.5 73.1237 75.1699 73.1238 74.8257C73.1238 74.4815 72.9871 74.1514 72.7437 73.9078ZM2.66509 28.6299C2.66509 23.4941 4.18928 18.4735 7.04493 14.2032C9.90057 9.93292 13.9594 6.60461 18.7082 4.63921C23.4569 2.6738 28.6823 2.15956 33.7236 3.16152C38.7649 4.16347 43.3956 6.63663 47.0301 10.2682C50.6647 13.8998 53.1398 18.5268 54.1426 23.5639C55.1454 28.6011 54.6307 33.8223 52.6637 38.5672C50.6967 43.3121 47.3657 47.3677 43.0919 50.221C38.8181 53.0743 33.7935 54.5973 28.6535 54.5973C21.7633 54.5895 15.1576 51.8512 10.2855 46.983C5.41342 42.1149 2.67286 35.5145 2.66509 28.6299Z" fill="black"/>
</svg>
