<svg width="447" height="325" viewBox="0 0 447 325" fill="none">
<g clipPath="url(#clip0_516_9)">
<path d="M333.588 211.626C334.298 211.658 334.9 211.11 334.932 210.402C334.95 210.023 334.799 209.656 334.52 209.399L334.432 209.049L334.467 208.965C335.211 207.21 337.238 206.39 338.995 207.133C339.829 207.486 340.491 208.152 340.839 208.989C341.881 211.496 343.207 214.007 343.534 216.658C343.678 217.829 343.617 219.017 343.355 220.168C345.802 214.835 347.073 209.039 347.081 203.172C347.082 201.7 347 200.229 346.836 198.766C346.7 197.566 346.512 196.375 346.272 195.193C344.96 188.778 342.144 182.765 338.054 177.649C336.075 176.57 334.474 174.911 333.467 172.895C333.103 172.17 332.845 171.397 332.702 170.599C332.925 170.628 333.152 170.646 333.376 170.661C333.445 170.664 333.518 170.668 333.588 170.672L333.614 170.673C334.317 170.704 334.913 170.161 334.944 169.458C334.958 169.147 334.857 168.841 334.661 168.599C334.564 168.481 334.468 168.362 334.371 168.244C334.225 168.061 334.075 167.882 333.928 167.699C333.912 167.682 333.896 167.663 333.881 167.644C333.712 167.436 333.544 167.231 333.376 167.022C333.683 166.546 334.096 166.147 334.584 165.856C336.271 164.869 338.599 165.552 339.818 167.077C340.975 168.688 341.352 170.73 340.847 172.646C340.429 174.267 339.739 175.806 338.804 177.195C338.896 177.312 338.991 177.426 339.083 177.543C340.756 179.691 342.214 181.999 343.436 184.432C343.139 181.706 343.493 178.949 344.471 176.387C345.462 173.999 347.319 171.989 348.954 169.925C350.162 168.376 352.399 168.099 353.949 169.306C354.693 169.885 355.176 170.735 355.293 171.67L355.303 171.761C355.06 171.898 354.822 172.044 354.589 172.197C353.788 172.732 353.573 173.814 354.108 174.614C354.38 175.021 354.81 175.294 355.293 175.369L355.328 175.374C355.242 176.249 355.089 177.115 354.871 177.967C353.593 182.771 350.368 186.827 345.972 189.156C345.829 189.229 345.69 189.302 345.547 189.372C346.775 192.848 347.546 196.469 347.839 200.144C348.005 202.312 347.995 204.49 347.809 206.657L347.82 206.58C348.289 204.171 349.576 201.997 351.463 200.426C354.266 198.126 358.226 197.279 361.25 195.43C362.18 194.833 363.419 195.103 364.016 196.032C364.272 196.431 364.379 196.907 364.317 197.376L364.304 197.457C363.853 197.64 363.415 197.851 362.99 198.089C362.747 198.226 362.509 198.371 362.277 198.525C361.476 199.06 361.26 200.142 361.795 200.942C362.067 201.348 362.497 201.622 362.98 201.696L363.016 201.702C363.041 201.706 363.063 201.709 363.089 201.713C362.319 203.55 361.238 205.241 359.893 206.712C356.536 210.31 351.843 212.366 346.92 212.398H346.916C346.255 215.268 345.297 218.062 344.057 220.735H333.844C333.808 220.621 333.775 220.504 333.742 220.391C334.687 220.45 335.636 220.394 336.568 220.223C335.81 219.294 335.052 218.358 334.295 217.429C334.278 217.412 334.262 217.393 334.247 217.374C333.863 216.899 333.475 216.427 333.09 215.952C333.07 214.495 333.237 213.04 333.588 211.626Z" fill="#F2F2F2"/>
<path d="M302.692 118.032C302.692 123.648 305.505 129.362 311.127 129.362C316.749 129.362 324.506 125.295 322.761 116.579C321.658 111.072 318.494 107.863 312.872 107.863C307.25 107.863 302.692 112.416 302.692 118.032Z" fill="#5A4729"/>
<path d="M326.276 198.268C325.118 196.986 325.221 195.009 326.504 193.853C326.641 193.729 326.789 193.619 326.945 193.521L324.484 182.687L329.894 184.72L331.401 194.697C332.221 196.228 331.643 198.132 330.11 198.951C328.827 199.635 327.242 199.353 326.276 198.268Z" fill="#A0616A"/>
<path d="M314.793 159.865L318.569 160.249C318.569 160.249 317.581 165.836 319.125 167.094C320.67 168.353 320.047 168.347 320.038 169.28C320.134 170.634 320.8 171.883 321.873 172.717C323.109 173.662 325.679 190.485 325.679 190.485L331.281 190.538C331.114 189.091 331.128 187.629 331.323 186.186C331.655 184.013 333.334 178.538 332.72 177.6C332.107 176.661 332.43 174.935 332.448 173.07C332.466 171.204 329.794 173.266 329.824 170.157C329.854 167.048 326.428 147.54 326.766 144.745C327.104 141.95 323.704 139.43 323.704 139.43L320.592 139.4L314.793 159.865Z" fill="#E6E6E6"/>
<path d="M274.712 133.629C274.356 135.226 275.364 136.808 276.962 137.164C277.133 137.202 277.306 137.225 277.481 137.232L280.51 147.314L284.022 143.117L280.607 134.186C280.568 132.542 279.202 131.241 277.556 131.28C276.178 131.312 275.003 132.284 274.712 133.629Z" fill="#A0616A"/>
<path d="M306.689 136.913C306.689 136.913 299.367 134.17 295.397 149.189L290.127 154.641L285.7 146.649L286.285 144.754L282.864 137.005L276.997 140.368L278.441 145.688L278.197 148.318L279.599 149.954L281.894 158.407L283.329 161.169C283.329 161.169 285.14 164.706 288.3 165.288C289.143 165.446 290.005 165.47 290.855 165.361C292.876 165.045 294.75 164.11 296.217 162.686C300.124 159.206 303.82 155.495 307.283 151.573L306.689 136.913Z" fill="#E6E6E6"/>
<path d="M316.51 162.061L317.028 164.527L317.468 173.621L299.775 171.228L298.416 160.697L300.294 157.615L316.51 162.061Z" fill="#A0616A"/>
<path d="M310.771 129.215C315.395 129.215 319.145 125.47 319.145 120.851C319.145 116.231 315.395 112.486 310.771 112.486C306.146 112.486 302.396 116.231 302.396 120.851C302.396 125.47 306.146 129.215 310.771 129.215Z" fill="#A0616A"/>
<path d="M324.802 140.411C323.42 137.155 320.56 134.757 317.11 133.962L317.079 133.956L315.42 131.726L308.693 132.4L307.464 134.919L304.274 136.815H304.267L304.261 136.821L302.59 137.816L297.049 144.297L297.042 144.303C295.398 145.4 294.282 147.128 293.959 149.077C293.876 149.633 293.848 150.196 293.877 150.758C294.06 154.203 296.216 157.27 296.513 157.68L297.238 161.754L297.383 162.592L298.688 162.781L317.072 165.407L317.583 165.483L317.734 165.501L318.264 164.135V164.122L323.389 150.727L325.691 144.75C325.697 143.258 325.394 141.781 324.802 140.411Z" fill="#E6E6E6"/>
<path d="M319.534 123.043C319.458 123.031 319.382 123.015 319.307 123.003C318 122.772 316.694 122.545 315.392 122.309L315.272 119.36L313.694 122.002C310.095 123.195 306.728 122.521 303.56 121.032C302.515 120.537 301.501 119.978 300.524 119.36C299.843 115.207 301.562 111.933 305.977 111.516C306.114 111.503 306.212 111.388 306.332 111.328L306.336 111.324C306.54 111.228 306.748 111.136 306.955 111.053C310.275 109.757 314.044 110.487 316.638 112.928C319.258 115.591 320.349 119.399 319.534 123.043Z" fill="#5A4729"/>
<path d="M327.784 190.504C327.413 188.033 326.805 185.603 325.968 183.249V183.242C325.267 181.251 324.394 179.325 323.358 177.486C323.355 177.486 323.352 177.483 323.352 177.48C321.86 174.708 319.915 172.204 317.596 170.074L317.35 169.815H317.287L299.533 169.381H299.35L299.148 169.375C299.148 169.375 299.072 169.595 298.927 170.011C298.922 170.037 298.913 170.062 298.902 170.086C298.852 170.25 298.789 170.439 298.713 170.647C298.669 170.785 298.619 170.93 298.568 171.088C298.511 171.258 298.448 171.434 298.385 171.623C297.894 173.09 297.175 175.219 296.292 177.858C296.16 178.261 296.021 178.676 295.876 179.111C292.509 189.232 287.094 205.77 282.365 221.445H299.136C300.762 216.747 302.49 210.046 302.49 210.046C303.164 209.246 303.126 207.073 303.126 207.073L308.397 201.544L312.193 221.445H328.118L328.238 199.295V199.106C328.362 196.231 328.21 193.35 327.784 190.504Z" fill="#CCCCCC"/>
<path d="M316.326 111.116V111.123C316.325 111.561 316.381 111.997 316.493 112.421C316.51 112.495 316.531 112.573 316.556 112.647V112.651C317.038 114.184 318.21 115.403 319.724 115.945C319.833 115.988 319.947 116.023 320.06 116.055C320.298 116.124 320.542 116.174 320.789 116.203C321.01 116.235 321.234 116.25 321.458 116.249C321.633 116.25 321.807 116.242 321.981 116.225C322.389 116.183 322.789 116.092 323.174 115.952C323.234 115.935 323.293 115.914 323.351 115.889C323.38 115.879 323.408 115.867 323.436 115.853C326.053 114.759 327.286 111.753 326.191 109.139C326.158 109.061 326.123 108.984 326.087 108.907L326.083 108.903C325.831 108.377 325.49 107.899 325.074 107.489C324.147 106.567 323.739 104.254 322.33 104.254C322.263 104.253 322.195 104.256 322.128 104.261C321.184 104.293 319.437 106.33 318.694 106.811C318.142 107.159 317.663 107.612 317.285 108.143C316.89 108.69 316.609 109.311 316.457 109.968C316.37 110.344 316.326 110.73 316.326 111.116Z" fill="#5A4729"/>
<path d="M322.596 109.332C323.393 110.258 324.64 110.619 325.766 111.101C329.799 112.868 332.698 116.51 333.514 120.833C333.825 122.568 333.784 124.363 334.276 126.054C334.765 127.745 335.975 129.404 337.711 129.697C338.886 129.898 340.064 129.445 341.169 128.997C341.777 128.753 342.385 128.508 342.993 128.262C342.359 126.673 341.725 125.084 341.093 123.495C342.109 124.995 343.291 126.375 344.615 127.612C346.794 126.734 348.974 125.857 351.157 124.979C345.788 125 346.704 119.793 345.503 114.57C344.842 111.699 339.22 109.756 338.118 107.025C336.396 102.743 331.526 100.666 327.24 102.386C325.393 103.127 323.871 104.502 322.948 106.264C321.845 106.702 321.813 108.416 322.596 109.332Z" fill="#5A4729"/>
<path d="M299.792 170.654C297.284 171.307 295.255 173.143 294.357 175.571C294.039 176.257 294.048 177.05 294.38 177.729C294.639 178.214 295.217 178.433 295.734 178.242C296.252 177.963 296.666 177.523 296.912 176.988C297.273 176.302 297.584 175.591 297.841 174.86C298.262 173.756 299.161 171.914 297.878 171.052C296.799 170.326 295.37 170.608 294.156 170.558C292.844 170.505 291.386 170.003 290.92 168.644C290.466 167.323 291.529 166.081 292.675 165.578C294.073 164.999 295.669 165.151 296.933 165.983C298.163 166.835 299.042 168.105 299.405 169.555C299.461 169.79 299.316 170.025 299.082 170.081C298.858 170.135 298.632 170.006 298.563 169.787C298.242 168.441 297.393 167.28 296.208 166.564C295.03 165.885 293.567 165.942 292.446 166.711C291.858 167.076 291.585 167.788 291.777 168.453C292.073 169.043 292.629 169.459 293.279 169.577C294.663 169.911 296.111 169.479 297.491 169.92C298.776 170.249 299.594 171.505 299.376 172.811C299.232 173.595 298.999 174.36 298.682 175.091C298.413 175.843 298.098 176.578 297.74 177.292C297.192 178.326 296.204 179.445 294.901 179.142C293.415 178.797 293.062 177.064 293.38 175.789C294.242 172.849 296.59 170.578 299.56 169.813C299.794 169.757 300.03 169.902 300.086 170.136C300.139 170.359 300.01 170.585 299.792 170.654Z" fill="#CCCCCC"/>
<path d="M365.385 222.075H261.988C259.552 222.072 257.578 220.1 257.575 217.666V77.2251C257.578 74.7915 259.552 72.8194 261.988 72.8167H365.385C367.821 72.8194 369.795 74.7915 369.798 77.2251V217.666C369.795 220.1 367.821 222.072 365.385 222.075ZM261.988 74.0762C260.248 74.0782 258.838 75.4869 258.836 77.2251V217.666C258.838 219.404 260.248 220.813 261.988 220.815H365.385C367.125 220.813 368.535 219.404 368.537 217.666V77.2251C368.535 75.4869 367.125 74.0782 365.385 74.0762H261.988Z" fill="#3F3D56"/>
<path d="M381.816 21.4752H88.4645C87.8355 21.4618 87.3364 20.9415 87.3499 20.3131C87.3629 19.7037 87.8544 19.2127 88.4645 19.1997H381.816C382.445 19.2131 382.944 19.7334 382.93 20.3618C382.917 20.9712 382.426 21.4622 381.816 21.4752Z" fill="#CACACA"/>
<path d="M438.804 156.577H405.389C400.863 156.577 397.193 152.912 397.193 148.39C397.193 143.869 400.863 140.203 405.389 140.203H438.804C443.331 140.203 447 143.869 447 148.39C447 152.912 443.331 156.577 438.804 156.577Z" fill="white"/>
<path d="M199.214 190.843C198.505 190.876 197.903 190.328 197.87 189.619C197.853 189.24 198.004 188.873 198.282 188.616L198.37 188.266L198.335 188.182C197.592 186.428 195.565 185.607 193.808 186.35C192.974 186.703 192.311 187.37 191.964 188.206C190.922 190.713 189.595 193.224 189.269 195.875C189.125 197.047 189.186 198.234 189.448 199.385C187.001 194.052 185.73 188.256 185.722 182.389C185.721 180.917 185.803 179.446 185.967 177.983C186.102 176.784 186.29 175.593 186.531 174.41C187.842 167.995 190.659 161.983 194.749 156.866C196.728 155.787 198.329 154.128 199.335 152.112C199.7 151.388 199.958 150.614 200.101 149.816C199.877 149.845 199.65 149.863 199.427 149.878C199.357 149.882 199.284 149.885 199.215 149.889L199.188 149.89C198.485 149.922 197.89 149.378 197.858 148.676C197.844 148.364 197.945 148.058 198.142 147.816C198.238 147.698 198.335 147.579 198.431 147.461C198.578 147.278 198.728 147.099 198.874 146.916C198.891 146.899 198.907 146.88 198.922 146.861C199.09 146.653 199.259 146.448 199.427 146.24C199.12 145.763 198.706 145.364 198.219 145.073C196.531 144.086 194.203 144.77 192.984 146.295C191.828 147.905 191.451 149.947 191.956 151.864C192.373 153.485 193.064 155.023 193.998 156.412C193.907 156.529 193.812 156.643 193.72 156.76C192.047 158.909 190.589 161.216 189.367 163.649C189.664 160.923 189.309 158.166 188.332 155.604C187.341 153.217 185.484 151.206 183.848 149.142C182.64 147.593 180.404 147.316 178.854 148.523C178.11 149.102 177.626 149.952 177.51 150.887L177.5 150.979C177.743 151.116 177.981 151.261 178.213 151.415C179.014 151.949 179.23 153.031 178.695 153.832C178.423 154.238 177.993 154.512 177.51 154.586L177.474 154.591C177.561 155.466 177.714 156.333 177.932 157.184C179.209 161.989 182.434 166.044 186.831 168.373C186.974 168.446 187.113 168.52 187.256 168.589C186.027 172.065 185.257 175.687 184.964 179.361C184.798 181.53 184.808 183.707 184.993 185.874L184.982 185.797C184.514 183.388 183.227 181.214 181.34 179.643C178.537 177.343 174.577 176.496 171.553 174.647C170.622 174.05 169.384 174.32 168.786 175.25C168.53 175.648 168.424 176.124 168.486 176.593L168.498 176.674C168.949 176.857 169.388 177.068 169.813 177.306C170.056 177.443 170.293 177.589 170.526 177.742C171.327 178.277 171.543 179.359 171.007 180.159C170.736 180.566 170.306 180.839 169.823 180.914L169.787 180.919C169.761 180.923 169.739 180.927 169.714 180.93C170.484 182.767 171.565 184.458 172.909 185.929C176.266 189.527 180.959 191.584 185.883 191.615H185.886C186.548 194.485 187.506 197.279 188.745 199.952H198.958C198.995 199.839 199.028 199.722 199.061 199.608C198.116 199.668 197.167 199.611 196.235 199.44C196.993 198.511 197.75 197.575 198.508 196.646C198.525 196.629 198.541 196.611 198.556 196.592C198.94 196.116 199.328 195.644 199.713 195.169C199.733 193.712 199.566 192.258 199.214 190.843Z" fill="#F2F2F2"/>
<g opacity="0.38">
<path d="M179.822 176.022C178.245 174.731 178.013 172.408 179.304 170.832C179.442 170.664 179.594 170.508 179.759 170.367L171.413 148.571L178.083 149.982L185.165 170.947C186.393 172.587 186.057 174.911 184.415 176.137C183.042 177.164 181.143 177.116 179.822 176.022Z" fill="#FFB8B8"/>
<path d="M183.255 152.15L175.765 121.014L172.544 111.957C172.54 111.954 172.538 111.95 172.537 111.945C172.013 110.465 170.916 109.258 169.492 108.594C168.068 107.913 166.429 107.836 164.947 108.38C164.82 108.424 164.696 108.475 164.575 108.531C164.316 108.649 164.066 108.784 163.824 108.934C162.434 109.81 161.469 111.221 161.158 112.833L160.59 115.805L160.351 117.071L169.196 147.956V147.968L172.273 158.725L173.698 163.688V163.694L175.349 169.469L175.387 169.589L179.353 169.324H179.359L179.958 169.28L184.497 168.978L185.153 168.934L183.255 152.15Z" fill="#2F2E41"/>
<path d="M152.848 100.165L169.531 133.867L180.085 169.704C157.85 174.035 129.951 183.3 127.942 170.012C129.18 132.965 133.078 121.147 141.126 105.086L152.848 100.165Z" fill="#2F2E41"/>
<path d="M175.155 200.032H161.455L155.9 181.283L151.991 199.793C151.979 199.875 151.973 199.95 151.96 200.032H137.358C137.831 194.238 138.695 184.162 139.105 182.732C139.685 180.704 139.105 180.704 137.945 179.545C137.686 179.287 137.598 178.254 137.623 176.812C137.693 171.843 139.048 162 139.048 162L140.656 159.027L141.211 157.994L169.846 156.987L170.092 156.98L170.622 159.285L171.271 162.126L172.412 167.107L173.465 171.081L173.522 171.283V172.46C173.343 172.871 173.261 173.317 173.282 173.764C173.282 174.167 174.19 186.725 175.155 200.032Z" fill="#2F2E41"/>
<path d="M150.893 105.163L152.859 100.464L158.944 100.571L165.289 109.536L171.949 137.513C171.949 137.513 174.341 157.949 171.949 159.028C169.557 160.107 140.593 159.533 140.593 159.533C141.934 148.496 142.933 137.269 143.987 130.562C147.468 108.395 149.111 113.06 150.893 105.163Z" fill="white"/>
<path d="M158.944 100.571C158.944 100.571 172.052 108.139 172.565 112.09C173.077 116.041 174.794 164.398 174.794 164.398L170.159 161.406L168.892 143.782C169.775 128.121 167.619 116.448 163.235 107.698L158.944 100.571Z" fill="#2F2E41"/>
<path d="M164.667 90.8749C165.458 86.0102 162.15 81.4266 157.28 80.6371C152.41 79.8477 147.822 83.1514 147.032 88.0161C146.241 92.8808 149.549 97.4644 154.419 98.2539C159.289 99.0433 163.877 95.7396 164.667 90.8749Z" fill="#FFB8B8"/>
<path d="M144.843 88.9155C145.242 90.7235 145.962 92.4457 146.968 94.0005C147.235 94.5306 147.634 94.9833 148.127 95.3149C148.641 95.6449 149.319 95.5603 149.736 95.1139L149.954 94.937C149.527 94.6747 149.147 94.3448 148.827 93.9603C148.505 93.5687 148.393 93.0463 148.525 92.5574C148.685 92.0635 149.208 91.7847 149.708 91.9263C150.231 92.1313 150.549 92.887 151.096 92.7704C151.539 92.6739 151.632 92.0911 151.632 91.6329C151.616 89.2371 152.775 85.8324 153.672 85.9369C154.578 85.9864 155.486 85.865 156.348 85.5791C157.211 85.2928 158.121 85.1767 159.028 85.2374C159.092 85.2455 159.157 85.2576 159.225 85.2696C159.371 84.8144 159.571 84.3785 159.821 83.9713C159.793 84.4628 159.817 84.956 159.893 85.4425C160.615 85.7396 161.361 85.975 162.123 86.1459C162.952 86.2625 164.774 88.7387 164.859 88.4854C165.004 88.0302 165.204 87.5943 165.454 87.187C165.426 87.6786 165.451 88.1718 165.527 88.6582C165.531 88.6783 165.531 88.6944 165.535 88.7145C165.937 88.1799 166.183 87.5287 166.046 88.0271C167.394 84.9802 166.871 82.7975 164.75 80.2289C164.337 79.6766 163.79 79.2381 163.161 78.9546C162.52 78.6734 161.779 78.7465 161.205 79.1476C159.444 77.5344 156.945 77.002 154.678 77.7567C152.469 78.5245 150.767 78.9747 150.429 81.2901C148.547 81.0846 146.715 81.9756 145.716 83.5813C144.764 85.1865 144.452 87.091 144.843 88.9155Z" fill="#2F2E41"/>
<path d="M119.81 173.82C119.051 171.929 119.971 169.782 121.864 169.025C122.065 168.944 122.274 168.881 122.487 168.837L125.708 145.723L130.868 150.175L126.941 171.951C127.224 173.98 125.807 175.853 123.777 176.135C122.078 176.372 120.438 175.415 119.81 173.82Z" fill="#FFB8B8"/>
<path d="M148.24 112.121L147.994 109.879C147.762 107.808 146.461 106.011 144.564 105.143C143.844 104.809 143.063 104.627 142.269 104.608H142.263C139.875 104.552 137.686 105.932 136.709 108.109L132.775 116.895L122.845 147.345L119.636 163.908L123.103 164.418L128.128 165.155L128.166 165.161L129.32 165.331L145.441 122.229L145.447 122.217L148.461 114.162L148.24 112.121Z" fill="#2F2E41"/>
</g>
<path d="M208.398 200.662H105.002C102.566 200.659 100.592 198.687 100.589 196.254V55.8125C100.592 53.3789 102.566 51.4068 105.002 51.4041H208.398C210.835 51.4068 212.809 53.3789 212.812 55.8125V196.254C212.809 198.687 210.835 200.659 208.398 200.662ZM105.002 52.6636C103.262 52.6656 101.852 54.0743 101.85 55.8125V196.254C101.852 197.992 103.262 199.4 105.002 199.402H208.398C210.139 199.4 211.549 197.992 211.551 196.254V55.8125C211.549 54.0743 210.139 52.6656 208.398 52.6636H105.002Z" fill="#E6E6E6"/>
<path d="M41.6107 156.577H8.19605C3.6695 156.577 0 152.912 0 148.39C0 143.869 3.6695 140.203 8.19605 140.203H41.6107C46.1373 140.203 49.8068 143.869 49.8068 148.39C49.8068 152.912 46.1373 156.577 41.6107 156.577Z" fill="#E6E6E6"/>
<path d="M58.0033 188.696H24.5886C20.0621 188.696 16.3926 185.031 16.3926 180.509C16.3926 175.987 20.0621 172.322 24.5886 172.322H58.0033C62.5298 172.322 66.1993 175.987 66.1993 180.509C66.1993 185.031 62.5298 188.696 58.0033 188.696Z" fill="#E6E6E6"/>
<path d="M75.6774 182.69L75.6592 183.949L140.231 184.881L140.249 183.622L75.6774 182.69Z" fill="#E6E6E6"/>
<path d="M142.949 187.134C141.742 187.135 140.641 186.448 140.111 185.365C139.348 183.802 139.998 181.917 141.562 181.155C143.127 180.393 145.014 181.042 145.777 182.605C146.54 184.168 145.89 186.053 144.325 186.815C143.897 187.024 143.426 187.133 142.949 187.134ZM142.943 182.095C141.898 182.096 141.052 182.943 141.053 183.987C141.053 184.273 141.118 184.555 141.244 184.813C141.703 185.749 142.835 186.137 143.772 185.679C144.71 185.221 145.098 184.09 144.64 183.153C144.323 182.506 143.664 182.095 142.943 182.095Z" fill="#E6E6E6"/>
<path d="M61.8073 149.311L61.7891 150.571L126.361 151.503L126.379 150.243L61.8073 149.311Z" fill="#E6E6E6"/>
<path d="M129.079 153.756C127.872 153.757 126.77 153.07 126.24 151.987C125.476 150.424 126.126 148.538 127.691 147.775C129.256 147.012 131.144 147.661 131.908 149.224C132.672 150.788 132.022 152.674 130.457 153.437C130.028 153.646 129.556 153.755 129.079 153.756ZM127.374 151.435C127.831 152.372 128.964 152.762 129.902 152.304C130.841 151.847 131.23 150.716 130.772 149.778C130.314 148.841 129.182 148.452 128.244 148.909C127.793 149.129 127.449 149.518 127.285 149.991C127.122 150.465 127.154 150.984 127.374 151.435Z" fill="#E6E6E6"/>
<path d="M66.8295 125.088H33.4148C28.8883 125.088 25.2188 121.423 25.2188 116.901C25.2188 112.38 28.8883 108.714 33.4148 108.714H66.8295C71.356 108.714 75.0255 112.38 75.0255 116.901C75.0255 121.423 71.356 125.088 66.8295 125.088Z" fill="#E6E6E6"/>
<path d="M87.026 117.822L87.0078 119.082L151.58 120.014L151.598 118.754L87.026 117.822Z" fill="#E6E6E6"/>
<path d="M154.297 122.267C153.091 122.268 151.989 121.581 151.459 120.498C150.695 118.935 151.345 117.049 152.91 116.286C154.475 115.523 156.363 116.172 157.127 117.735C157.891 119.298 157.241 121.184 155.676 121.948C155.247 122.157 154.775 122.266 154.297 122.267ZM152.592 119.946C153.05 120.883 154.182 121.273 155.121 120.815C156.059 120.358 156.449 119.227 155.991 118.289C155.533 117.352 154.401 116.963 153.463 117.42C153.012 117.64 152.667 118.029 152.504 118.502C152.341 118.976 152.373 119.495 152.592 119.946Z" fill="#E6E6E6"/>
<path d="M324.632 145.019L324.614 146.278L389.186 147.21L389.204 145.951L324.632 145.019Z" fill="#3F3D56"/>
<path d="M321.922 149.065C320.178 149.069 318.761 147.66 318.757 145.918C318.753 144.176 320.163 142.76 321.907 142.756C323.651 142.752 325.069 144.161 325.073 145.904C325.075 147.111 324.387 148.215 323.301 148.745C322.871 148.955 322.4 149.064 321.922 149.065ZM321.918 144.024C320.872 144.024 320.025 144.871 320.025 145.915C320.025 146.959 320.872 147.806 321.918 147.806C322.963 147.806 323.81 146.959 323.81 145.915C323.81 145.628 323.745 145.345 323.619 145.087C323.301 144.437 322.641 144.025 321.918 144.024Z" fill="#3F3D56"/>
<path d="M438.804 221.445H405.389C400.863 221.445 397.193 217.779 397.193 213.258C397.193 208.736 400.863 205.071 405.389 205.071H438.804C443.331 205.071 447 208.736 447 213.258C447 217.779 443.331 221.445 438.804 221.445Z" fill="white"/>
<path d="M324.632 209.886L324.614 211.146L389.186 212.078L389.204 210.818L324.632 209.886Z" fill="#3F3D56"/>
<path d="M321.922 213.932C320.18 213.934 318.767 212.525 318.766 210.786C318.764 209.046 320.174 207.635 321.916 207.633C323.122 207.632 324.224 208.319 324.753 209.402C325.515 210.967 324.863 212.853 323.296 213.615C322.868 213.823 322.398 213.931 321.922 213.932ZM321.918 208.892C320.872 208.892 320.025 209.738 320.025 210.782C320.024 211.827 320.872 212.673 321.917 212.673C322.963 212.673 323.81 211.827 323.81 210.783C323.81 210.496 323.745 210.212 323.619 209.954C323.302 209.305 322.642 208.892 321.918 208.892Z" fill="#3F3D56"/>
<path d="M238.928 221.368C240.525 220.088 240.781 217.756 239.499 216.16C239.374 216.005 239.238 215.861 239.091 215.728L245.096 198.263L240.668 195.416L233.688 216.212C232.434 217.826 232.728 220.151 234.344 221.403C235.696 222.451 237.592 222.437 238.928 221.368Z" fill="#FFB6B6"/>
<path d="M244.052 173.18C242.992 177.661 241.409 181.576 241.623 183.456C241.835 185.331 239.542 187.132 240.271 188.614C240.998 190.1 238.759 190.259 239.364 192.65C239.972 195.046 240.367 195.559 239.854 195.953C239.337 196.346 236.607 205.491 236.607 205.491L238.209 206.077L242.881 207.78L253.86 189.741L253.826 167.6L251.1 167.513C250.446 167.758 249.721 168.052 248.998 168.407C246.79 169.472 244.556 171.046 244.052 173.18Z" fill="white"/>
<path d="M284.481 313.67H290.19L292.906 291.672H284.479L284.481 313.67Z" fill="#FFB6B6"/>
<path d="M292.091 314.183V310.317L290.59 310.409L284.48 310.77L283.066 310.857L281.985 323.806L281.927 324.5H285.981L286.111 323.811L286.7 320.677L288.22 323.811L288.553 324.5H299.301C300.632 324.492 301.708 323.414 301.714 322.085C302.167 319.968 293.229 315.393 292.091 314.183Z" fill="#2F2E41"/>
<path d="M217.593 307.462L222.559 310.277L235.789 292.483L228.459 288.329L217.593 307.462Z" fill="#FFB6B6"/>
<path d="M223.96 311.658L225.867 308.297L224.525 307.637L219.028 304.942L217.754 304.315L211.494 313.47L210.022 315.62L211.687 316.565L213.546 317.621L216.065 314.651L215.785 318.889L224.564 323.869H224.568L225.133 324.187C226.294 324.842 227.767 324.434 228.424 323.276C229.863 321.656 224.351 313.277 223.96 311.658Z" fill="#2F2E41"/>
<path d="M256.148 205.688C248.497 210.752 240.923 259.407 242.911 258.613L224.878 292.183L234.095 298.408L267.422 245.14L278.5 268.705L283.075 304.874L294.551 304.055C291.569 263.308 284.124 220.331 277.954 203.708L256.148 205.688Z" fill="#41342E"/>
<path d="M250.339 209.301L250.255 209.614C258.343 214.109 280.482 208.902 280.482 208.902L276.914 197.417L281.731 171.903C281.705 167.784 278.342 164.466 274.218 164.492C274.049 164.493 273.88 164.5 273.711 164.513L267.898 160.212L259.624 160.497L254.089 166.604L250.783 167.784L248.213 168.699C247.694 169.166 247.127 169.705 246.584 170.299L250.648 194.457L252.376 201.681L250.339 209.301Z" fill="white"/>
<path d="M263.769 159.254C269.632 159.254 274.386 154.505 274.386 148.648C274.386 142.791 269.632 138.043 263.769 138.043C257.906 138.043 253.152 142.791 253.152 148.648C253.152 154.505 257.906 159.254 263.769 159.254Z" fill="#FFB6B6"/>
<path d="M249.81 144.954C249.842 144.966 249.869 144.978 249.901 144.99C249.962 145.017 250.024 145.039 250.087 145.058C250.492 145.206 250.914 145.303 251.343 145.346C251.526 145.366 251.71 145.375 251.894 145.375C252.13 145.376 252.366 145.361 252.6 145.329C252.86 145.297 253.118 145.245 253.37 145.173C253.489 145.141 253.607 145.103 253.723 145.059C255.321 144.492 256.56 143.209 257.07 141.594V141.59C257.097 141.512 257.12 141.433 257.138 141.353C257.256 140.907 257.316 140.448 257.316 139.987V139.979C257.319 138.855 256.968 137.758 256.313 136.844C255.918 136.284 255.461 136.191 255.717 135.551C256.534 133.51 253.193 131.842 251.221 132.74C251.149 132.733 251.078 132.73 251.006 132.731C249.678 132.728 249.186 134.687 248.394 135.79L248.417 135.797C248.948 135.983 249.228 136.564 249.042 137.095C248.938 137.391 248.702 137.623 248.404 137.723C247.877 137.895 247.344 138.046 246.806 138.178C245.031 140.272 247.066 146.397 249.81 144.954Z" fill="#2F2E41"/>
<path d="M250.787 150.568C251.292 152.837 252.502 154.887 254.245 156.427C256.042 157.877 264.49 161.312 265.203 158.371C264.726 160.425 265.013 161.21 265.781 161.945C265.912 161.767 266.051 161.597 266.194 161.431C266.721 160.824 267.354 160.317 268.061 159.935C268.08 161.176 267.99 162.416 267.794 163.641C268.11 163.932 268.411 164.24 268.696 164.562C270.062 160.494 273.057 155.622 270.889 151.918C270.028 150.448 270.746 150.247 271.508 150.078C272.838 149.783 273.572 144.329 273.889 143.003C274.282 141.34 274.437 139.428 273.406 138.063C272.374 136.698 269.766 136.64 269.238 138.266L268.14 136.774C266.72 133.654 262.952 134.278 259.546 134.681C256.091 135.204 253.117 137.396 251.597 140.539C250.135 143.677 249.847 147.236 250.787 150.568Z" fill="#2F2E41"/>
<path d="M256.158 136.314C256.305 140.161 254.141 143.724 250.656 145.369C249.964 145.682 249.362 144.657 250.059 144.341C253.173 142.906 255.112 139.735 254.968 136.311C254.929 135.547 256.118 135.553 256.158 136.314Z" fill="white"/>
<path d="M304.108 142.182C302.135 142.729 300.979 144.771 301.526 146.743C301.579 146.933 301.648 147.12 301.731 147.3L289.313 160.981L292.257 165.342L306.886 148.985C308.676 147.996 309.324 145.745 308.334 143.957C307.505 142.461 305.758 141.727 304.108 142.182Z" fill="#FFB6B6"/>
<path d="M268.812 186.564C268.812 186.564 277.618 188.144 280.363 184.441C283.108 180.737 286.109 177.767 286.655 175.957C287.201 174.147 290.019 173.399 289.935 171.748C289.852 170.097 291.975 170.834 292.361 168.395C292.748 165.957 292.589 165.328 293.218 165.169C293.848 165.01 299.966 157.685 299.966 157.685L295.107 153.108L277.895 165.355L268.812 186.564Z" fill="white"/>
<path d="M202.574 319.882C195.663 319.06 189.493 315.166 185.782 309.284C183.399 305.425 182.17 300.841 180.981 296.408C180.634 295.118 180.277 293.784 179.898 292.497C179.021 289.622 179.984 286.504 182.329 284.621C184.597 282.723 187.792 282.394 190.399 283.789L190.678 283.937L191.165 294.882C191.887 293.416 193.473 290.103 194.729 286.796L194.834 286.519L195.075 286.692C197.599 288.504 199.886 290.627 201.88 293.009C209.006 301.664 211.961 313.011 209.959 324.037L209.899 324.361L202.574 319.882Z" fill="#F2F2F2"/>
<path d="M157.893 324.251C157.891 324.663 158.225 324.999 158.638 325H341.661C342.075 325 342.411 324.665 342.411 324.251C342.411 323.837 342.075 323.501 341.661 323.501H158.643C158.23 323.5 157.894 323.834 157.893 324.246V324.251Z" fill="#CCCCCC"/>
<path d="M103.135 10.889C106.08 10.889 108.467 8.45141 108.467 5.4445C108.467 2.43758 106.08 0 103.135 0C100.191 0 97.8037 2.43758 97.8037 5.4445C97.8037 8.45141 100.191 10.889 103.135 10.889Z" fill="white"/>
<path d="M121.553 10.889C124.498 10.889 126.885 8.45141 126.885 5.4445C126.885 2.43758 124.498 0 121.553 0C118.609 0 116.222 2.43758 116.222 5.4445C116.222 8.45141 118.609 10.889 121.553 10.889Z" fill="white"/>
<path d="M139.972 10.889C142.917 10.889 145.304 8.45141 145.304 5.4445C145.304 2.43758 142.917 0 139.972 0C137.028 0 134.641 2.43758 134.641 5.4445C134.641 8.45141 137.028 10.889 139.972 10.889Z" fill="white"/>
<path d="M160.973 9.74758C160.809 9.74758 160.646 9.68423 160.522 9.55815L156.925 5.88464C156.685 5.63986 156.685 5.2487 156.925 5.00393L160.522 1.33072C160.767 1.08225 161.166 1.07825 161.414 1.32088C161.663 1.56412 161.667 1.96296 161.424 2.21143L158.258 5.44428L161.424 8.67744C161.667 8.92591 161.663 9.32475 161.414 9.56799C161.291 9.68792 161.132 9.74758 160.973 9.74758Z" fill="white"/>
<path d="M167.018 9.74755C166.859 9.74755 166.7 9.68789 166.577 9.56796C166.328 9.32472 166.324 8.92619 166.568 8.67741L169.733 5.44425L166.568 2.2114C166.324 1.96293 166.328 1.56409 166.577 1.32085C166.826 1.07731 167.225 1.08192 167.469 1.33069L171.066 5.0039C171.306 5.24868 171.306 5.63983 171.066 5.88461L167.469 9.55813C167.345 9.68421 167.182 9.74755 167.018 9.74755Z" fill="white"/>
<path d="M355.218 0.630371H348.529C347.766 0.630371 347.148 1.24754 347.148 2.00959V8.69786C347.148 9.45991 347.766 10.0771 348.529 10.0771H355.218C355.981 10.0771 356.605 9.45991 356.605 8.69786V2.00959C356.605 1.24754 355.981 0.630371 355.218 0.630371Z" fill="white"/>
<path d="M338.827 0.630371H332.138C331.375 0.630371 330.757 1.24754 330.757 2.00959V8.69786C330.757 9.45991 331.375 10.0771 332.138 10.0771H338.827C339.59 10.0771 340.214 9.45991 340.214 8.69786V2.00959C340.214 1.24754 339.59 0.630371 338.827 0.630371Z" fill="white"/>
<path d="M370.666 0.945312H363.976C363.214 0.945312 362.596 1.56248 362.596 2.32453V9.0128C362.596 9.77485 363.214 10.392 363.976 10.392H370.666C371.429 10.392 372.053 9.77485 372.053 9.0128V2.32453C372.053 1.56248 371.429 0.945312 370.666 0.945312Z" fill="white"/>
<path d="M269.84 3.4895H216.37C215.437 3.4895 214.687 4.24525 214.687 5.17104C214.687 6.09684 215.437 6.85254 216.37 6.85254H269.84C270.766 6.85254 271.523 6.0968 271.523 5.17104C271.523 4.24528 270.766 3.4895 269.84 3.4895Z" fill="white"/>
</g>
<defs>
<clipPath id="clip0_516_9">
<rect width="447" height="325" fill="white"/>
</clipPath>
</defs>
</svg>
