<svg width="24" height="17" viewBox="0 0 34 25" fill="none" >
<path d="M31.5604 7.06062L18.0604 20.5606C17.7791 20.8418 17.3976 20.9998 16.9999 20.9998C16.6021 20.9998 16.2207 20.8418 15.9394 20.5606L2.43938 7.06062C2.29611 6.92225 2.18184 6.75673 2.10323 6.57373C2.02461 6.39072 1.98323 6.19389 1.9815 5.99472C1.97977 5.79555 2.01772 5.59804 2.09315 5.41369C2.16857 5.22935 2.27995 5.06187 2.42079 4.92103C2.56162 4.78019 2.7291 4.66881 2.91345 4.59339C3.09779 4.51797 3.29531 4.48002 3.49448 4.48175C3.69365 4.48348 3.89048 4.52486 4.07348 4.60347C4.25649 4.68208 4.42201 4.79636 4.56038 4.93962L16.9999 17.3791L29.4394 4.93962C29.5777 4.79636 29.7433 4.68208 29.9263 4.60347C30.1093 4.52486 30.3061 4.48348 30.5053 4.48175C30.7044 4.48002 30.902 4.51797 31.0863 4.59339C31.2707 4.66881 31.4381 4.78019 31.579 4.92103C31.7198 5.06187 31.8312 5.22935 31.9066 5.41369C31.982 5.59804 32.02 5.79555 32.0183 5.99472C32.0165 6.19389 31.9751 6.39072 31.8965 6.57373C31.8179 6.75673 31.7036 6.92225 31.5604 7.06062Z" fill="#3E9276"/>
</svg>
