<svg width="48" height="32" viewBox="0 0 48 32" fill="none" xmlns="http://www.w3.org/2000/svg">
<g id="mastercard-color_large">
<rect id="card_bg" width="48" height="32" rx="4" fill="#F2F0EC"/>
<g id="mastercard">
<g id="Group" opacity="0.01">
<rect id="Rectangle" x="4.65039" y="3.19995" width="38.71" height="25.6" fill="white"/>
</g>
<rect id="Rectangle_2" x="18.9004" y="7.65991" width="10.21" height="16.68" fill="#F26122"/>
<path id="Path" d="M20.0007 16.0001C19.9839 12.7536 21.4584 9.67911 24.0007 7.66006C19.651 4.23935 13.4027 4.73608 9.64802 8.80106C5.89337 12.866 5.89337 19.1341 9.64802 23.1991C13.4027 27.264 19.651 27.7608 24.0007 24.3401C21.4584 22.321 19.9839 19.2465 20.0007 16.0001Z" fill="#EA1D25"/>
<path id="Shape" fillRule="evenodd" clipRule="evenodd" d="M40.1404 22.2299V22.5699H40.0804V22.2299H39.9404V22.1599H40.2904V22.2299H40.1404ZM40.8204 22.1599V22.5699H40.7504V22.2599L40.6404 22.5299H40.5604L40.4404 22.2599V22.5699H40.3704V22.1599H40.4704L40.6004 22.4499L40.7204 22.1599H40.8204Z" fill="#F69E1E"/>
<path id="Path_2" d="M41.16 16C41.1574 20.0593 38.8389 23.7614 35.1879 25.5358C31.5369 27.3102 27.1935 26.846 24 24.34C28.6001 20.7179 29.3967 14.0543 25.78 9.44999C25.2616 8.78326 24.6638 8.18216 24 7.65999C27.1935 5.15398 31.5369 4.68973 35.1879 6.46416C38.8389 8.23859 41.1574 11.9406 41.16 16Z" fill="#F69E1E"/>
</g>
</g>
</svg>
