<svg width="48" height="32" viewBox="0 0 48 32" fill="none" xmlns="http://www.w3.org/2000/svg">
<g id="paypal-color-large">
<rect id="card_bg" width="48" height="32" rx="4" fill="white"/>
<path id="card_bg-2" fillRule="evenodd" clipRule="evenodd" d="M4 0H44C46.2091 0 48 1.79086 48 4V28C48 30.2091 46.2091 32 44 32H4C1.79086 32 0 30.2091 0 28V4C0 1.79086 1.79086 0 4 0ZM46 4C46 2.89543 45.1046 2 44 2H4C2.89543 2 2 2.89543 2 4V28C2 29.1046 2.89543 30 4 30H44C45.1046 30 46 29.1046 46 28V4Z" fill="#CCCCCB"/>
<g id="paypal">
<path id="Path" d="M20.3405 25.3199L20.6905 23.1199H19.9105H16.2305L18.7905 6.85993C18.7973 6.80955 18.8222 6.76336 18.8605 6.72993C18.9007 6.69887 18.9497 6.68136 19.0005 6.67993H25.2105C27.2805 6.67993 28.7005 7.10993 29.4505 7.95993C29.7823 8.31646 30.0135 8.75473 30.1205 9.22993C30.2371 9.80744 30.2371 10.4024 30.1205 10.9799V11.4799L30.4705 11.6799C30.7369 11.8127 30.9774 11.9922 31.1805 12.2099C31.4861 12.5789 31.6835 13.0255 31.7505 13.4999C31.8254 14.1201 31.7984 14.7484 31.6705 15.3599C31.5386 16.1027 31.278 16.8168 30.9005 17.4699C30.5954 17.9936 30.183 18.4468 29.6905 18.7999C29.1947 19.138 28.6428 19.3852 28.0605 19.5299C27.4068 19.6948 26.7346 19.7755 26.0605 19.7699H25.5705C25.227 19.77 24.8945 19.8903 24.6305 20.1099C24.3651 20.3335 24.1908 20.6466 24.1405 20.9899V21.1899L23.5305 25.0699V25.2199C23.5377 25.2461 23.5377 25.2738 23.5305 25.2999H23.4705L20.3405 25.3199Z" fill="#253D80"/>
<path id="Path_2" d="M30.8002 11.0801L30.7402 11.4501C29.9202 15.6501 27.1102 17.1101 23.5302 17.1101H21.7102C21.2724 17.1095 20.8991 17.4276 20.8302 17.8601L19.9002 23.7801L19.6302 25.4601C19.61 25.5946 19.649 25.7313 19.7372 25.8349C19.8254 25.9384 19.9542 25.9987 20.0902 26.0001H23.3302C23.7144 25.9997 24.0411 25.7197 24.1002 25.3401V25.1801L24.7102 21.3101V21.1001C24.7648 20.722 25.0883 20.4411 25.4702 20.4401H26.0002C29.1302 20.4401 31.5902 19.1701 32.3002 15.4401C32.6844 14.1652 32.4474 12.784 31.6602 11.7101C31.4105 11.4539 31.1198 11.241 30.8002 11.0801V11.0801Z" fill="#189BD7"/>
<path id="Path_3" d="M29.9404 10.7401L29.5604 10.6401L29.1404 10.5601C28.6108 10.4809 28.0758 10.4441 27.5404 10.4501H22.6604C22.5464 10.447 22.4333 10.471 22.3304 10.5201C22.0985 10.6286 21.9369 10.8467 21.9004 11.1001L20.9004 17.6701V17.8601C20.9693 17.4276 21.3425 17.1096 21.7804 17.1101H23.6004C27.1804 17.1101 29.9904 15.6501 30.8104 11.4501L30.8704 11.0801C30.655 10.9688 30.4309 10.8751 30.2004 10.8001L29.9404 10.7401Z" fill="#242E65"/>
<path id="Path_4" d="M21.9004 11.1C21.9369 10.8466 22.0985 10.6286 22.3304 10.52C22.4333 10.4709 22.5464 10.4469 22.6604 10.45H27.5404C28.0758 10.444 28.6108 10.4808 29.1404 10.56L29.5604 10.64L29.9404 10.74L30.1304 10.8C30.3609 10.8751 30.585 10.9687 30.8004 11.08C31.1254 9.83063 30.8275 8.50118 30.0004 7.51C29.0004 6.45 27.3604 6 25.2204 6H19.0004C18.5625 5.99947 18.1893 6.31756 18.1204 6.75L15.5304 23.16C15.5072 23.3148 15.5523 23.472 15.654 23.5909C15.7556 23.7098 15.9039 23.7788 16.0604 23.78H19.9004L20.9004 17.67L21.9004 11.1Z" fill="#253D80"/>
</g>
</g>
</svg>
