<svg width="16" height="12" viewBox="0 0 16 12" fill="none" xmlns="http://www.w3.org/2000/svg">
<path d="M15.2702 8.65558C15.2527 8.64395 15.2074 8.6339 15.1887 8.62551L8.38649 5.61887V4.64199C9.68036 4.48639 10.3192 3.63278 10.3192 2.53527C10.3192 1.32002 9.46397 0.40332 8.31177 0.40332C7.10203 0.40332 6.08696 1.40056 6.08696 2.58121C6.08696 2.78434 6.25518 2.94931 6.45831 2.94931C6.51879 2.94931 6.57508 2.93121 6.62521 2.90564C6.74424 2.84448 6.82898 2.72416 6.82898 2.58121C6.82898 1.81328 7.52831 1.13952 8.32469 1.13952C9.06897 1.13952 9.60949 1.72662 9.60949 2.53527C9.60949 3.33098 8.96641 3.93103 8.08983 3.93103C7.8867 3.93103 7.73952 4.096 7.73952 4.29913V5.01852V5.74081C7.73952 5.74792 7.72528 5.75377 7.72596 5.76087L1.20457 8.84322C0.242913 9.18967 -0.0863883 9.97793 0.0187447 10.5796C0.126787 11.1984 0.651437 11.5969 1.33105 11.5969H14.2836C15.0881 11.5969 15.7191 11.1806 15.9304 10.4826C16.139 9.79486 15.8673 9.05348 15.2702 8.65558ZM15.2259 10.314C15.1091 10.7006 14.7656 10.95 14.2839 10.95H1.33105C1.00208 10.95 0.786303 10.7675 0.739081 10.4978C0.685399 10.1898 0.883352 9.75251 1.47755 9.53643L8.227 6.33701L14.8856 9.30191C15.1984 9.5254 15.3381 9.94333 15.2259 10.314Z" fill="black"/>
</svg>
