<svg width="54" height="54" viewBox="0 0 54 54" fill="none" xmlns="http://www.w3.org/2000/svg">
<path d="M27 53.2813C21.8021 53.2813 16.7209 51.7399 12.3989 48.8521C8.077 45.9642 4.70847 41.8597 2.7193 37.0574C0.730137 32.2551 0.209681 26.9709 1.22375 21.8728C2.23782 16.7747 4.74086 12.0919 8.41636 8.41636C12.0919 4.74086 16.7747 2.23782 21.8728 1.22375C26.9709 0.209681 32.2551 0.730137 37.0574 2.7193C41.8597 4.70847 45.9642 8.077 48.8521 12.3989C51.7399 16.7209 53.2813 21.8021 53.2813 27C53.2813 33.9702 50.5123 40.655 45.5837 45.5837C40.655 50.5123 33.9702 53.2813 27 53.2813ZM27 2.53126C22.1605 2.53126 17.4298 3.96633 13.4059 6.65499C9.38204 9.34365 6.24582 13.1651 4.39383 17.6362C2.54185 22.1073 2.05729 27.0272 3.00142 31.7736C3.94555 36.5201 6.27598 40.88 9.69799 44.302C13.12 47.724 17.4799 50.0545 22.2264 50.9986C26.9729 51.9427 31.8927 51.4582 36.3638 49.6062C40.8349 47.7542 44.6564 44.618 47.345 40.5941C50.0337 36.5703 51.4688 31.8395 51.4688 27C51.4688 20.5105 48.8908 14.2868 44.302 9.69799C39.7132 5.10921 33.4895 2.53126 27 2.53126ZM36.0625 23.375C34.9871 23.375 33.9358 23.0561 33.0416 22.4586C32.1474 21.8611 31.4505 21.0119 31.0389 20.0184C30.6274 19.0248 30.5197 17.9315 30.7295 16.8767C30.9393 15.8219 31.4572 14.8531 32.2176 14.0926C32.9781 13.3322 33.9469 12.8143 35.0017 12.6045C36.0565 12.3947 37.1498 12.5024 38.1433 12.9139C39.1369 13.3255 39.9861 14.0224 40.5836 14.9166C41.1811 15.8108 41.5 16.8621 41.5 17.9375C41.5 19.3796 40.9271 20.7627 39.9074 21.7824C38.8877 22.8021 37.5046 23.375 36.0625 23.375ZM36.0625 14.3125C35.3456 14.3125 34.6447 14.5251 34.0486 14.9234C33.4524 15.3218 32.9878 15.8879 32.7134 16.5503C32.4391 17.2127 32.3673 17.9415 32.5072 18.6447C32.647 19.3479 32.9923 19.9938 33.4992 20.5008C34.0062 21.0077 34.6521 21.353 35.3553 21.4929C36.0585 21.6327 36.7874 21.5609 37.4497 21.2866C38.1121 21.0122 38.6783 20.5476 39.0766 19.9515C39.4749 19.3553 39.6875 18.6545 39.6875 17.9375C39.6875 16.9761 39.3056 16.0541 38.6258 15.3742C37.9459 14.6944 37.0239 14.3125 36.0625 14.3125ZM17.9375 23.375C16.8621 23.375 15.8108 23.0561 14.9166 22.4586C14.0224 21.8611 13.3255 21.0119 12.9139 20.0184C12.5024 19.0248 12.3947 17.9315 12.6045 16.8767C12.8143 15.8219 13.3322 14.8531 14.0926 14.0926C14.8531 13.3322 15.8219 12.8143 16.8767 12.6045C17.9315 12.3947 19.0248 12.5024 20.0184 12.9139C21.0119 13.3255 21.8611 14.0224 22.4586 14.9166C23.0561 15.8108 23.375 16.8621 23.375 17.9375C23.375 19.3796 22.8021 20.7627 21.7824 21.7824C20.7627 22.8021 19.3796 23.375 17.9375 23.375ZM17.9375 14.3125C17.2206 14.3125 16.5197 14.5251 15.9236 14.9234C15.3274 15.3218 14.8628 15.8879 14.5884 16.5503C14.3141 17.2127 14.2423 17.9415 14.3822 18.6447C14.522 19.3479 14.8673 19.9938 15.3742 20.5008C15.8812 21.0077 16.5271 21.353 17.2303 21.4929C17.9335 21.6327 18.6624 21.5609 19.3247 21.2866C19.9871 21.0122 20.5533 20.5476 20.9516 19.9515C21.3499 19.3553 21.5625 18.6545 21.5625 17.9375C21.5625 16.9761 21.1806 16.0541 20.5008 15.3742C19.821 14.6944 18.8989 14.3125 17.9375 14.3125ZM40.3672 28.8125C40.3672 28.5722 40.2717 28.3416 40.1018 28.1717C39.9318 28.0017 39.7013 27.9063 39.4609 27.9063C39.2206 27.9063 38.9901 28.0017 38.8201 28.1717C38.6502 28.3416 38.5547 28.5722 38.5547 28.8125C38.55 31.1587 37.619 33.4081 35.9642 35.0713C34.3095 36.7345 32.0649 37.677 29.7188 37.6938H27.2719C27.0315 37.6938 26.801 37.7892 26.6311 37.9592C26.4611 38.1291 26.3656 38.3597 26.3656 38.6C26.3656 38.8404 26.4611 39.0709 26.6311 39.2408C26.801 39.4108 27.0315 39.5063 27.2719 39.5063H29.7188C32.5463 39.4919 35.2533 38.3592 37.2485 36.3555C39.2436 34.3519 40.3648 31.6401 40.3672 28.8125Z" fill="black"/>
</svg>
