<svg width="458" height="714" viewBox="0 0 458 714" fill="none" xmlns="http://www.w3.org/2000/svg">
<path d="M310.984 0.110256C309.574 0.537346 307.993 1.43424 302.866 4.50929C297.696 7.62705 293.039 10.0615 292.184 10.0615C291.928 10.0615 291.415 10.2323 290.988 10.4886C289.706 11.2146 277.529 15.1011 273.77 15.9553C270.309 16.7668 269.07 17.023 260.781 18.347C253.09 19.5856 245.229 20.0981 232.582 20.0981C215.919 20.0981 205.536 18.9877 193.915 16.0834C192.59 15.7418 190.753 15.2293 185.797 13.9053C184.985 13.6917 182.293 12.8803 179.815 12.1542C175.457 10.8302 174.005 10.2323 167.638 7.28537C166.015 6.51661 163.708 5.44889 162.511 4.93638C161.358 4.42387 158.965 3.31343 157.256 2.54467C155.504 1.7332 153.838 1.09256 153.496 1.09256C153.112 1.09256 152.471 0.879018 152.001 0.665473C150.634 -0.10329 148.326 0.836309 143.071 4.29574C137.901 7.71246 133.33 10.0615 131.92 10.0615C131.45 10.0615 130.766 10.2323 130.339 10.4886C129.228 11.1292 123.033 13.4782 122.434 13.4782C122.178 13.4782 121.067 13.948 119.999 14.5032C107.737 20.7814 95.1754 26.718 94.1927 26.718C93.9363 26.718 93.5091 26.8888 93.2527 27.1024C92.9109 27.444 81.2467 31.5014 78.3414 32.2702C75.6069 33.0389 66.549 36.4556 64.7973 37.3952C64.37 37.6515 63.7719 37.8223 63.4301 37.8223C63.0882 37.8223 61.8919 38.2921 60.7383 38.8474C57.0639 40.6411 55.7394 41.0682 52.1931 41.8797C50.2278 42.3068 48.1769 43.0755 47.4933 43.5881C46.3824 44.4849 46.3824 44.6131 46.8097 46.1933C47.1088 47.1329 47.6215 49.1829 48.006 50.8486C48.8178 54.2653 50.0141 58.8779 51.8086 65.3697C54.244 73.9969 55.9103 81.2574 56.9784 87.7919C57.363 90.0128 57.833 92.7889 58.0466 93.9847C59.8838 103.851 61.251 117.218 61.6356 128.793C61.8065 134.43 60.8665 152.923 60.1829 156.81C59.9693 158.262 59.7556 160.056 59.7556 160.824C59.7556 163.173 57.363 174.577 55.3976 181.538C54.9276 183.161 54.4149 185.083 54.2013 185.809C53.6031 188.03 50.7832 196.444 50.185 197.768C49.8859 198.451 49.0742 200.501 48.4333 202.252C45.6561 209.598 39.2899 221.044 33.3083 229.372C30.4457 233.387 29.933 234.07 24.635 240.69C19.8069 246.712 12.1163 253.93 4.93833 259.226C3.10112 260.55 1.22118 262.258 0.79392 263.027C-0.744212 265.504 -0.0178716 270.288 2.71658 276.053C5.75012 282.46 6.34828 284.04 6.34828 285.834C6.34828 287.457 6.98917 289.934 9.12547 296.426C9.89453 298.775 10.8345 301.85 11.2618 303.259C11.689 304.668 12.159 306.291 12.3726 306.889C12.8426 308.47 13.9108 313.509 14.4662 317.097C15.4062 322.862 15.0216 335.718 13.569 345.327C13.3553 346.865 12.9708 355.492 12.6717 364.546C12.159 382.057 12.7572 436.084 13.6544 453.808C14.2098 464.998 14.2098 567.457 13.6117 586.42C12.9708 608.458 13.0562 637.884 13.8253 645.956C14.5089 652.875 14.4235 655.609 13.2272 666.286C12.3299 674.443 11.8599 680.124 11.7745 684.095C11.689 687.939 11.7745 688.281 12.7572 689.349C13.3553 689.989 14.2953 690.715 14.8935 690.929C16.7734 691.655 25.1904 693.577 28.5657 694.047C29.6339 694.175 31.4711 694.474 32.6247 694.687C35.6155 695.243 41.4262 696.225 45.2288 696.823C46.9806 697.079 49.416 697.506 50.5696 697.72C51.7659 697.976 53.9449 698.318 55.483 698.531C57.0212 698.745 60.012 699.214 62.1055 699.599C65.9936 700.282 67.5317 700.538 75.5642 701.692C78.0423 702.033 81.8022 702.631 83.8957 703.016C87.912 703.742 89.9628 704.083 96.2863 705.108C100.602 705.834 101.157 705.92 108.036 706.859C110.728 707.244 114.188 707.714 115.727 707.927C118.247 708.312 122.392 708.739 136.235 710.063C142.387 710.661 149.865 711.301 156.957 711.771C160.247 711.984 165.459 712.369 168.493 712.625C183.105 713.736 258.602 713.479 285.135 712.198C289.621 711.984 300.473 711.6 309.275 711.344C341.661 710.362 366.186 709.166 378.063 707.927C392.078 706.518 395.196 706.133 397.504 705.792C398.914 705.578 402.46 705.108 405.408 704.724C430.36 701.563 437.623 700.282 445.143 697.762C449.373 696.353 450.227 694.175 449.245 687.427C448.86 684.95 448.262 681.405 447.92 679.526C447.536 677.646 447.066 674.956 446.852 673.546C446.638 672.137 446.168 669.233 445.784 667.14C444.417 659.538 444.203 645.102 443.605 522.143C443.434 485.114 443.519 450.306 443.904 415.157C444.716 344.473 444.716 339.476 443.69 333.369C442.537 326.236 442.323 316.798 443.22 311.886C444.459 305.138 444.63 304.668 448.775 295.144C449.074 294.418 449.544 293.094 449.843 292.155C450.954 288.695 451.723 286.602 451.979 286.175C452.535 285.364 455.782 276.352 456.465 273.79C457.619 269.305 457.534 269.006 453.774 265.419C451.936 263.668 448.347 260.336 445.784 257.987C437.281 250.214 426.771 237.615 420.875 228.177C415.449 219.507 408.997 205.071 406.476 196.059C406.092 194.65 405.536 192.514 405.194 191.361C402.118 180.385 399.854 158.945 400.452 146.602C401.392 125.974 401.52 124.265 403.101 111.709C403.87 105.388 404.34 102.954 407.331 88.4325C408.698 81.8981 410.791 73.9115 412.885 67.5051C413.184 66.5655 414.252 63.1915 415.235 60.031C416.218 56.8706 417.798 52.2153 418.738 49.7382C419.678 47.2183 420.362 44.8266 420.277 44.3995C420.148 43.6735 419.55 43.4172 414.167 41.837C412.757 41.4526 410.663 40.5984 409.552 40.0005L407.459 38.9328L406.732 39.9151C405.066 42.1359 401.178 53.4966 397.888 65.7968C397.29 68.1458 396.606 70.5375 396.393 71.1354C396.008 72.3312 393.957 79.8907 393.402 82.2397C393.231 83.0512 392.761 84.8877 392.419 86.2971C391.65 89.4149 390.582 94.1556 390.027 96.7608C389.813 97.8285 389.3 100.007 388.959 101.672C387.549 107.865 386.31 115.04 385.754 119.824C385.54 121.831 385.156 125.077 384.942 127.084C383.96 135.455 383.532 144.467 383.575 156.212C383.575 172.826 384.43 181.923 387.249 196.059C388.446 201.868 389.258 204.943 391.138 210.58C393.573 217.926 398.059 226.767 401.648 231.294C402.289 232.106 403.784 234.028 404.981 235.565C408.612 240.135 412.885 244.833 420.319 252.222C432.154 264.009 435.701 267.17 443.562 273.106C448.647 276.908 451.125 279.043 451.125 279.555C451.125 280.41 450.185 284.296 449.373 286.688C449.117 287.457 448.647 288.097 448.262 288.097C446.681 288.097 428.395 275.071 420.362 268.238C416.474 264.906 411.603 259.995 405.835 253.503C403.827 251.282 401.862 249.104 401.434 248.591C399.341 246.328 393.359 237.914 391.223 234.284C386.096 225.529 383.703 220.446 381.481 213.57C380.755 211.435 380.029 209.128 379.772 208.402C379.559 207.719 379.174 206.267 378.961 205.199C378.747 204.174 378.234 201.953 377.85 200.33C377.465 198.665 376.953 196.572 376.782 195.632C375.457 189.14 374.944 186.279 374.603 183.46C374.389 181.709 374.004 178.42 373.705 176.2C373.406 173.808 373.193 165.522 373.193 155.913C373.193 139.47 373.534 133.448 375.286 122.173C375.628 120.037 376.098 116.791 376.397 114.912C377.38 108.378 380.712 92.3191 382.336 86.2971C382.849 84.4179 383.917 80.3605 384.686 77.3282C385.455 74.2531 386.48 70.5375 386.993 68.9999C387.848 66.2666 390.625 57.1695 391.308 54.6924C393.744 45.9371 396.564 38.8046 398.23 37.2671C398.914 36.5838 399.426 35.815 399.298 35.5588C398.999 34.7046 394.556 32.6973 390.967 31.8004C387.762 30.9462 385.327 30.2201 383.191 29.3659C382.592 29.1524 381.054 28.6399 379.772 28.2128C378.491 27.7857 377.252 27.2732 377.038 27.1024C376.782 26.8888 376.269 26.718 375.884 26.718C375.457 26.718 374.603 26.4617 373.919 26.1201C373.278 25.7784 372.167 25.2659 371.441 25.0096C368.621 23.8138 367.638 23.4294 362.511 21.1658C361.358 20.6533 359.435 19.8845 358.239 19.4147C357.042 18.9449 355.889 18.347 355.675 18.1335C355.419 17.9199 354.949 17.7491 354.607 17.7491C354.265 17.7491 352.642 16.8095 350.975 15.6991C348.07 13.7344 346.062 12.8803 341.746 11.7698C340.678 11.4709 339.183 11.0011 338.414 10.6594C337.645 10.3177 336.747 10.0615 336.448 10.0615C335.85 10.0615 333.073 8.65206 330.381 6.98641C326.75 4.72283 319.657 1.22069 317.82 0.750891C315.385 0.152965 311.838 -0.188708 310.984 0.110256ZM320.341 3.6124C322.99 5.70514 323.588 6.85828 323.502 9.59166C323.46 10.9156 323.118 13.1792 322.733 14.5886C322.392 15.9553 321.836 17.8772 321.58 18.8168C320.768 21.7637 316.538 34.5764 316.111 35.3452C315.855 35.7723 315.684 36.2848 315.684 36.5411C315.684 37.5234 308.078 53.1976 306.113 56.3153C305.259 57.6393 304.575 58.8352 304.575 58.9633C304.575 59.2623 299.918 66.5228 299.491 66.8645C299.362 66.9926 297.824 68.9145 296.158 71.2208C286.502 84.1616 273.129 95.1806 251.595 107.908C236.683 116.749 232.325 118.201 227.027 116.193C224.122 115.083 212.629 109.232 209.638 107.31C208.313 106.413 207.117 105.73 206.989 105.73C206.476 105.73 197.333 99.8786 192.548 96.4618C183.575 90.0982 175.244 82.4106 170.031 75.6625C167.895 72.9292 161.956 64.1311 160.631 61.7394C159.777 60.1592 156.102 52.8132 155.333 51.0621C154.607 49.3965 152.214 43.8443 151.403 41.8797C150.762 40.4276 148.027 32.3556 147.429 30.1347C147.173 29.3232 146.489 27.0169 145.848 25.0096C143.627 17.9199 142.986 14.9303 142.943 11.7271C142.857 8.69477 142.943 8.43852 144.267 6.77287C145.934 4.68012 149.608 2.28842 150.933 2.45925C151.787 2.58738 151.83 2.80092 151.873 7.92601C151.873 11.599 152.129 14.0761 152.642 15.8272C153.026 17.2366 153.539 19.0731 153.753 19.8845C154.479 22.6179 157.641 32.8681 158.324 34.6192C161.059 41.7943 162.554 45.2964 164.989 50.208C167.98 56.3581 173.492 65.1988 177.124 69.7687C181.012 74.6375 191.565 84.6742 198.187 89.7565C206.177 95.9066 223.268 105.901 230.275 108.506L232.283 109.232L234.761 107.865C236.171 107.096 237.752 106.114 238.35 105.73C238.948 105.303 240.785 104.278 242.409 103.381C255.867 96.1202 258.474 94.4972 266.549 88.2617C276.718 80.446 281.503 75.8334 288.339 67.3343C298.166 55.0768 309.061 32.2275 312.223 17.1085C312.736 14.7595 313.248 10.6167 313.376 7.92601C313.547 5.23534 313.889 2.75822 314.103 2.41654C314.872 1.47694 318.589 2.203 320.341 3.6124ZM133.5 11.2573C134.013 11.5563 134.782 14.2469 136.021 19.671C136.833 23.3867 138.158 28.2982 139.268 31.8431C139.439 32.441 139.909 34.0639 140.294 35.4733C141.49 39.7015 144.566 47.9017 147.216 54.0518C150.078 60.5435 156.914 72.4594 161.315 78.4813C165.972 84.8877 174.389 93.6003 179.944 97.8285C184.814 101.544 197.034 110.001 197.504 110.001C197.632 110.001 199.427 111.026 201.477 112.264C203.528 113.503 206.69 115.254 208.442 116.151C211.347 117.688 214.637 119.482 220.619 122.899C225.276 125.547 230.702 127.938 232.069 127.938C233.693 127.938 235.573 127.084 241.554 123.668C243.904 122.344 247.279 120.464 249.031 119.525C256.038 115.724 266.72 109.146 273.385 104.448C282.4 98.1275 292.313 89.244 298.679 81.8126C309.787 68.8291 320.298 49.6527 327.946 28.4691C330.296 21.8492 330.937 19.8845 331.962 16.0407C333.287 10.8302 333.329 10.7448 335.679 11.0865C336.747 11.2146 337.858 11.5563 338.072 11.7698C338.328 12.0261 338.841 12.1969 339.226 12.1969C339.653 12.1969 340.507 12.624 341.148 13.1792C342.259 14.1615 342.302 14.2042 341.746 16.5105C340.892 20.4398 337.346 31.9712 336.192 34.6192C336.021 35.089 334.739 38.164 333.372 41.4526C330.125 49.3111 325.126 59.305 321.195 65.7113C320.512 66.8218 319.956 67.8468 319.956 67.9322C319.956 68.5301 309.317 84.0762 308.463 84.8023C308.292 84.9304 307.523 85.87 306.711 86.9377C305.899 88.0055 304.447 89.7138 303.464 90.7815C302.439 91.8493 301.242 93.216 300.772 93.8139C299.832 95.0524 290.433 103.552 286.416 106.883C276.675 114.869 256.978 127.725 244.93 133.96C241.64 135.626 238.82 137.164 238.563 137.334C237.239 138.359 232.325 140.751 231.599 140.751C230.83 140.751 228.01 139.384 222.328 136.267C220.918 135.498 218.824 134.345 217.628 133.704C216.474 133.063 213.868 131.654 211.86 130.586C208.1 128.579 194.385 120.037 190.839 117.517C189.728 116.706 186.651 114.57 184.002 112.734C175.799 107.096 166.57 99.4088 161.614 94.1128C154.265 86.2117 146.959 75.3209 141.96 64.7717C140.678 62.0384 139.439 59.4758 139.183 59.0914C138.969 58.6643 138.799 58.1518 138.799 57.9383C138.799 57.7247 138.2 56.2299 137.474 54.607C134.099 47.0048 129.997 34.9608 128.202 27.1451C127.946 26.0774 127.433 23.9419 127.092 22.3617C126.707 20.7814 126.408 18.2616 126.408 16.7668C126.408 14.2469 126.493 13.9907 127.69 13.1365C128.373 12.624 129.1 12.1969 129.356 12.1969C129.57 12.1969 129.826 11.8979 129.997 11.5563C130.253 10.8729 132.646 10.6594 133.5 11.2573ZM356.401 20.0554C358.538 21.0804 361.87 22.5325 363.75 23.3013C365.63 24.07 367.852 24.9669 368.664 25.3086C371.142 26.3336 373.064 27.1024 376.568 28.4263C377.038 28.5972 378.192 29.067 379.132 29.4087C383.703 31.1597 386.908 32.2702 387.506 32.2702C388.36 32.2702 389.172 33.1243 389.172 34.0212C389.172 34.4056 388.318 36.9254 387.292 39.6161C385.412 44.5277 383.062 51.3184 381.695 55.9737C381.311 57.3831 380.584 59.7748 380.114 61.3123C379.089 64.7717 378.405 67.1634 377.423 70.7083C377.038 72.2458 376.44 74.3386 376.141 75.4063C374.902 79.8907 374.603 81.0012 373.364 86.2971C372.637 89.3294 371.868 92.618 371.655 93.5576C371.185 95.4368 369.518 103.594 369.219 105.303C365.459 127.938 364.605 137.676 364.605 157.835C364.605 174.534 365.417 185.51 367.382 194.351C367.596 195.291 368.066 197.597 368.407 199.476C369.347 204.046 370.373 208.53 370.928 210.367C371.569 212.63 372.552 215.577 372.936 216.56C373.107 217.029 374.09 219.507 375.073 222.112C377.636 228.689 380.627 234.754 384.43 241.075C388.531 247.823 390.155 250.044 396.82 257.902C405.622 268.238 405.066 267.383 404.767 270.117C404.468 273.021 404.34 273.534 400.495 289.592C395.496 310.434 393.274 319.403 391.736 324.614C391.266 326.236 388.189 339.69 387.249 344.26C386.865 346.139 386.352 348.531 386.139 349.598C385.711 351.734 383.96 360.66 382.934 366.255C382.592 368.262 382.122 370.654 381.909 371.593C381.695 372.533 381.396 373.985 381.268 374.797C381.14 375.608 380.841 377.146 380.584 378.213C379.815 381.886 378.149 390.855 377.423 395.297C377.038 397.774 376.483 401.234 376.141 402.985C375.842 404.736 375.372 407.512 375.115 409.177C374.859 410.8 374.389 413.875 374.047 416.011C373.705 418.104 373.193 421.478 372.936 423.485C372.68 425.492 372.167 429.037 371.868 431.386C370.245 443.302 369.134 453.552 368.236 465.553C367.98 468.842 367.596 473.924 367.382 476.871C364.861 509.031 364.605 545.334 366.741 576.383C367.083 581.423 367.553 588.513 367.809 592.1C368.023 595.73 368.322 599.275 368.45 600.001C368.578 600.77 368.877 604.059 369.091 607.347C369.561 614.181 370.116 620.587 370.757 626.139C371.014 628.232 371.484 632.46 371.825 635.535C372.167 638.568 372.68 643.18 372.894 645.785C373.321 650.526 374.09 658.385 374.517 662.57C374.688 664.15 374.987 664.962 375.543 665.261C376.269 665.645 388.617 665.09 391.351 664.535C391.949 664.449 394.641 664.15 397.333 663.937C408.313 663.083 413.013 662.613 415.278 662.228C418.183 661.716 425.062 661.673 425.062 662.143C425.062 662.357 422.926 662.656 420.319 662.826C417.713 662.955 415.235 663.296 414.808 663.51C414.38 663.766 412.97 663.937 411.731 663.937C410.492 663.937 408.313 664.15 406.903 664.407C405.493 664.62 402.246 665.005 399.64 665.218C397.076 665.432 391.693 665.901 387.677 666.286C379.003 667.097 373.278 667.567 364.391 668.165C360.759 668.421 355.034 668.848 351.702 669.147C347.258 669.489 337.987 669.532 317.307 669.275C283.554 668.806 272.488 668.934 254.586 669.745C233.052 670.77 195.581 670.984 178.704 670.172C170.928 669.788 159.179 669.489 152.642 669.489C146.062 669.489 138.243 669.275 135.167 669.062C128.117 668.464 120.64 667.781 116.795 667.354C113.59 666.969 103.678 665.901 97.7817 665.261C95.7735 665.047 93.68 664.748 93.0818 664.62C91.7573 664.321 84.7075 663.595 77.7005 663.083C69.1126 662.485 59.2429 660.776 57.5766 659.623C56.0812 658.555 55.6967 656.975 56.5939 655.566C57.5339 654.199 57.9184 649.031 58.4311 632.119C58.9011 617.085 59.542 600.044 60.1829 588.128C60.4392 583.644 60.6101 576.939 60.6101 573.18C60.6529 561.905 62.1055 537.475 63.601 524.278C63.8146 522.271 64.2846 517.744 64.6691 514.242C65.0109 510.697 65.5236 506.212 65.7372 504.205C65.9936 502.198 66.3781 498.354 66.6345 495.663C66.8481 492.973 67.2327 489.001 67.4463 486.908C70.8216 453.125 71.9752 419.043 70.3089 404.479C69.8817 400.935 69.3689 396.237 69.1126 394.016C68.8562 391.795 68.429 388.036 68.0872 385.687C67.7454 383.338 67.1899 379.11 66.8054 376.291C66.4636 373.473 65.9509 370.013 65.7372 368.604C65.5236 367.194 65.0536 364.119 64.7118 361.77C62.8746 349.427 61.8919 343.363 60.8238 337.64C60.4392 335.632 59.9693 332.942 59.7556 331.661C59.542 330.379 59.2002 328.329 58.9866 327.176C58.7302 325.98 58.3029 323.802 58.0466 322.265C56.5939 314.107 53.304 297.579 52.4922 294.504C51.7659 291.642 49.8005 283.058 49.0314 279.342C48.7751 278.146 48.3051 276.139 48.006 274.857C47.7069 273.576 47.2369 271.355 46.9379 269.903L46.4252 267.298L48.6469 264.138C49.8859 262.386 52.4068 259.226 54.2013 257.133C65.2245 244.278 75.8633 227.792 80.9904 215.705C84.1094 208.274 87.5275 197.469 89.9628 187.304C91.4582 180.94 93.5945 167.871 94.4063 160.141C95.1327 153.137 95.389 133.491 94.8336 127.511C94.1927 120.721 93.21 112.221 92.6546 108.933C92.3982 107.523 92.0137 104.918 91.8 103.167C91.2873 99.4515 89.9628 92.1482 88.5529 85.6565C88.1683 83.9054 87.6984 81.6845 87.5275 80.7449C87.3565 79.8053 86.8438 77.5844 86.4593 75.8334C86.0748 74.0823 85.6048 71.7333 85.3912 70.6656C85.2202 69.5979 84.793 67.8468 84.5366 66.8218C84.2803 65.7968 83.853 64.2592 83.6821 63.4478C83.4685 62.6363 82.5712 59.1769 81.7167 55.7601C80.8622 52.3434 80.0077 48.7131 79.7941 47.6454C79.6232 46.5777 79.2386 45.0402 79.025 44.2287C78.3414 42.0932 78.4268 34.5337 79.1104 34.1066C79.7513 33.6796 81.2895 33.1243 86.8866 31.2024C92.9536 29.1524 94.3209 28.6399 94.6199 28.2982C94.7909 28.1274 95.1754 27.9993 95.4745 27.9993C95.7735 27.9993 97.3117 27.4013 98.9353 26.6753C100.516 25.9492 102.695 24.9669 103.721 24.5398C104.746 24.07 106.455 23.3013 107.566 22.8742C108.634 22.4471 111.027 21.2939 112.864 20.3116C114.701 19.3293 116.41 18.6033 116.709 18.7314C117.222 18.9449 118.034 21.5502 119.358 27.3586C119.743 28.9816 120.213 30.9035 120.426 31.6295C120.64 32.3129 121.11 34.0639 121.495 35.4733C121.922 36.8827 122.392 38.5911 122.605 39.3172C123.374 41.9651 126.793 52.1726 127.263 53.4111C127.562 54.0945 127.946 55.0768 128.117 55.5466C131.962 65.2415 132.475 66.3947 135.338 71.9896C143.327 87.6638 150.804 97.1025 164.819 109.275C175.244 118.243 193.958 130.8 212.501 141.178C217.5 143.997 221.089 146.047 225.276 148.61C227.839 150.147 230.403 151.428 230.958 151.428C232.026 151.428 238.222 148.652 240.913 146.944C241.725 146.431 243.562 145.364 244.972 144.595C246.382 143.826 248.348 142.716 249.33 142.161C259.243 136.651 274.88 126.614 285.263 119.098C300.986 107.737 311.496 96.9744 321.409 82.0262C324.998 76.6021 326.451 74.2104 330.595 66.8645C333.628 61.5259 344.31 39.0182 344.31 37.9932C344.31 37.865 344.609 37.139 344.951 36.4129C345.891 34.2775 350.292 20.6106 350.292 19.7137C350.292 19.0304 351.189 18.1762 351.872 18.1762C352.172 18.1762 354.222 19.0304 356.401 20.0554ZM67.959 38.9755C68.3008 39.4026 69.4117 42.9901 70.4371 47.0048C71.4198 50.9767 72.4025 54.8205 72.5734 55.5466C73.727 59.5185 74.7951 63.6613 75.7778 67.9322C76.1624 69.5552 76.7605 71.9896 77.1023 73.2708C78.3414 77.8407 78.555 78.6522 79.1959 81.8126C79.5804 83.5637 80.0504 85.7846 80.264 86.7242C80.6486 88.4325 81.3322 91.892 82.5712 98.0421C82.9131 99.7931 83.383 102.569 83.6394 104.235C83.8957 105.858 84.3657 109.146 84.7075 111.495C87.912 133.106 87.912 150.66 84.7075 171.502C81.5458 192.258 74.8379 210.666 64.1991 227.92C54.5003 243.68 43.6052 256.578 28.993 269.647C22.5841 275.37 11.1763 283.399 9.42455 283.399C8.82638 283.399 6.64736 278.915 6.17738 276.694C5.79285 275.028 7.2028 273.32 11.6036 270.074C19.8924 264.009 29.8048 255.339 35.0173 249.574C48.0487 235.309 54.3294 226.468 60.3538 213.997C63.7719 206.993 65.0536 204.089 66.3354 200.544C66.9763 198.793 68.0017 196.187 68.5572 194.778C74.3679 180.257 78.085 152.453 76.846 132.337C76.376 124.863 75.4787 115.894 74.7097 111.282C74.0688 107.31 73.0006 101.331 72.5734 99.3234C72.3598 98.2556 72.0607 96.5473 71.9325 95.4795C71.7616 94.4118 71.4625 92.8743 71.2916 92.0628C71.078 91.2513 70.608 89.0305 70.2235 87.1513C69.8389 85.2721 69.3689 83.0512 69.1553 82.2397C68.5999 79.8907 67.6172 75.6625 66.3781 70.0677C65.78 67.2489 64.9682 64.003 64.6264 62.8498C64.2846 61.7394 64.0282 60.4581 64.0282 60.0737C64.0282 59.6467 63.9 59.1769 63.7291 59.006C63.5155 58.8352 63.1737 57.7675 62.8746 56.6997C62.6183 55.5893 62.191 54.0091 61.9346 53.1976C60.5674 48.4142 59.7129 44.6558 59.6274 42.9474C59.542 41.1536 59.6274 41.0255 61.251 40.1713C65.0109 38.164 66.9336 37.8223 67.959 38.9755ZM31.3429 284.296C31.6847 286.047 32.1547 289.464 32.4111 291.941C33.0092 297.322 33.6928 302.49 35.1883 313.082C35.5728 315.645 36.0428 319.232 36.2564 320.983C36.47 322.734 36.7691 324.656 36.8973 325.254C37.0255 325.852 37.3245 327.774 37.5382 329.525C37.88 332.515 38.7345 338.195 39.6745 344.26C40.529 349.94 41.4262 355.962 41.8108 359.165C42.0671 361.002 42.3662 362.667 42.4516 362.881C42.5798 363.052 42.8789 364.632 43.0925 366.34C43.3489 368.049 43.8189 370.996 44.1607 372.875C44.8443 376.291 45.0579 377.658 46.297 384.833C46.6388 386.926 47.1515 389.745 47.3651 391.026C50.7832 410.416 50.9541 412.124 50.9114 431.813C50.8686 447.53 50.7832 450.776 49.9287 458.079C49.3732 462.649 48.9033 467.176 48.7751 468.116C48.4333 471.661 48.1769 472.6 47.5788 472.6C46.8951 472.6 46.6815 471.917 46.297 468.543C45.7415 463.845 44.7588 457.823 43.5198 451.673C43.3062 450.605 42.7935 448.213 42.4516 446.334C42.0671 444.455 41.5971 442.149 41.3835 441.209C41.1699 440.27 40.6999 438.049 40.3154 436.298C39.9308 434.547 39.3754 431.941 39.0336 430.532C38.7345 429.123 38.2645 426.902 37.9654 425.62C37.4954 423.229 37.1109 421.606 35.1883 413.448C34.5901 410.843 33.7783 407.512 33.4365 405.974C33.052 404.437 32.6247 402.515 32.4111 401.703C32.1974 400.892 31.7275 398.842 31.3429 397.219C30.9584 395.553 30.4884 393.631 30.3175 392.948C30.1039 392.222 29.8048 390.898 29.6766 389.958C29.5057 389.019 29.2066 387.78 29.0357 387.182C28.8221 386.584 28.4803 385.132 28.2239 383.979C27.3267 379.964 25.1049 370.739 24.5068 368.604C23.9941 366.767 22.8832 362.753 21.7296 358.354C21.516 357.628 21.046 355.919 20.6615 354.51C18.397 346.609 17.5425 340.715 17.2861 331.233C16.9443 318.677 16.2607 314.278 12.9281 302.832C12.2872 300.568 11.5181 296.169 11.4754 294.674C11.4754 294.162 11.9026 293.607 12.4581 293.351C13.569 292.838 23.7377 285.492 27.4976 282.46C28.8648 281.349 30.1893 280.581 30.3602 280.751C30.5739 280.965 31.0011 282.545 31.3429 284.296ZM433.265 288.909C444.502 296.426 445.399 297.365 444.246 300.355C443.989 300.995 443.648 302.319 443.434 303.259C443.263 304.199 442.75 306.121 442.366 307.53C441.084 312.014 439.76 317.78 439.161 321.667C438.948 323.119 438.649 324.528 438.521 324.87C438.435 325.211 438.136 326.706 437.922 328.244C437.495 331.02 436.47 337.426 435.743 341.911C435.53 343.192 435.017 345.712 434.632 347.463C434.248 349.214 433.778 351.435 433.607 352.374C433.436 353.314 432.966 355.407 432.539 357.072C431.001 363.65 428.822 373.814 428.181 377.359C428.095 377.957 427.754 379.58 427.412 380.989C427.113 382.399 426.6 384.705 426.344 386.115C425.745 389.147 424.336 395.98 422.926 402.344C422.712 403.284 422.242 405.504 421.857 407.256C421.473 409.007 421.003 411.142 420.789 411.954C420.319 413.833 419.337 418.146 418.439 421.99C418.098 423.613 417.585 425.749 417.371 426.688C413.91 441.209 412.671 446.676 411.817 451.459C411.603 452.613 411.133 455.132 410.791 457.012C409.339 464.656 407.032 478.451 405.579 487.976C404.767 493.528 404.383 494.937 403.827 495.108C403.229 495.322 402.716 493.528 401.776 488.189C401.434 486.054 400.922 483.363 400.708 482.21C400.11 478.964 399.127 472.814 398.572 468.757C398.315 466.749 397.803 463.29 397.504 461.069C397.162 458.848 396.606 454.406 396.222 451.246C395.88 448.085 395.41 443.943 395.154 442.063C394.513 436.639 393.829 425.877 393.829 420.026C393.787 412.381 394.299 409.22 397.931 393.802C398.486 391.453 399.469 387.396 400.067 384.833C400.665 382.228 401.477 378.769 401.819 377.146C402.204 375.48 402.674 373.473 402.844 372.661C403.058 371.85 403.528 369.714 403.913 367.963C405.878 358.823 407.459 351.691 409.723 342.338C412.287 331.746 413.398 327.091 414.167 323.546C414.551 321.795 415.32 318.335 415.876 315.858C416.431 313.381 417.115 310.221 417.371 308.811C417.67 307.402 418.14 305.266 418.439 304.113C418.738 302.917 419.508 299.671 420.148 296.853C422.028 288.695 423.737 283.399 424.421 283.399C424.763 283.399 428.779 285.876 433.265 288.909ZM28.993 658C33.0947 658.513 40.3581 659.666 48.4333 661.118C56.0385 662.485 59.2429 663.04 62.1055 663.424C72.6588 664.962 74.7097 665.304 76.4187 665.645C78.8541 666.158 82.2722 666.585 96.2863 668.165C98.6362 668.464 102.097 668.848 103.977 669.062C105.857 669.318 108.549 669.489 109.959 669.489C111.411 669.489 114.744 669.745 117.436 670.087C120.127 670.429 126.878 670.941 132.39 671.197C137.901 671.454 145.592 671.881 149.48 672.094C160.546 672.778 203.015 672.991 238.136 672.564C259.029 672.308 277.487 672.308 291.244 672.607C308.719 672.948 315.769 672.906 332.475 672.308C360.076 671.368 371.911 670.813 377.209 670.3C379.687 670.087 384.002 669.703 386.822 669.489C393.787 668.934 400.238 668.336 404.34 667.823C406.22 667.567 410.749 667.055 414.38 666.713C418.012 666.329 422.627 665.859 424.635 665.645C431.556 664.876 440.999 664.706 442.152 665.304C444.203 666.414 445.015 673.461 443.306 675.383C442.537 676.237 439.631 677.006 435.743 677.39C433.18 677.646 429.334 678.202 423.994 679.099C422.114 679.398 419.038 679.91 417.158 680.166C415.278 680.423 412.629 680.85 411.304 681.063C409.937 681.277 407.459 681.661 405.75 681.875C404.041 682.088 400.324 682.601 397.504 682.942C394.684 683.327 391.052 683.797 389.386 684.01C386.651 684.309 384.6 684.565 374.218 685.718C361.956 687.085 341.575 687.982 305.429 688.751C273.812 689.391 256.594 689.861 246.468 690.374C223.866 691.527 167.425 690.502 142.217 688.495C126.109 687.213 120.64 686.615 110.172 684.822C108.634 684.608 106.156 684.224 104.618 684.01C103.08 683.797 99.918 683.327 97.568 682.942C95.2181 682.558 92.0564 682.088 90.5183 681.875C87.8265 681.533 83.2121 680.807 75.3506 679.483C73.257 679.141 70.3516 678.671 68.9417 678.458C67.5317 678.244 64.6691 677.775 62.5328 677.39C60.4392 677.006 57.5766 676.536 56.2521 676.322C54.8849 676.152 53.6458 675.853 53.4322 675.725C53.1758 675.596 51.8086 675.297 50.3132 675.041C48.8178 674.828 45.8697 674.315 43.7334 673.973C41.6399 673.589 38.7345 673.119 37.3245 672.906C35.9146 672.692 32.9238 672.222 30.702 671.881C28.4803 671.539 25.874 671.112 24.934 670.984C21.9432 670.557 18.1406 669.361 17.3716 668.678C15.9189 667.311 17.7134 657.872 19.5506 657.36C20.3624 657.146 23.8232 657.36 28.993 658ZM431.898 661.374C431.898 661.631 430.702 661.801 429.121 661.801C427.54 661.801 426.344 661.631 426.344 661.374C426.344 661.118 427.54 660.947 429.121 660.947C430.702 660.947 431.898 661.118 431.898 661.374Z" fill="black"/>
</svg>
