<svg width="55" height="54" viewBox="0 0 55 54" fill="none" xmlns="http://www.w3.org/2000/svg">
<path d="M27.5002 0.333313C12.7802 0.333313 0.833496 12.28 0.833496 27C0.833496 41.72 12.7802 53.6666 27.5002 53.6666C42.2202 53.6666 54.1668 41.72 54.1668 27C54.1668 12.28 42.2202 0.333313 27.5002 0.333313ZM27.5002 11C32.6468 11 36.8335 15.1866 36.8335 20.3333C36.8335 25.48 32.6468 29.6666 27.5002 29.6666C22.3535 29.6666 18.1668 25.48 18.1668 20.3333C18.1668 15.1866 22.3535 11 27.5002 11ZM27.5002 48.3333C22.0868 48.3333 15.6868 46.1466 11.1268 40.6533C15.6335 37.1333 21.3135 35 27.5002 35C33.6868 35 39.3668 37.1333 43.8735 40.6533C39.3135 46.1466 32.9135 48.3333 27.5002 48.3333Z" fill="black"/>
</svg>
