<svg width="426" height="306" viewBox="0 0 426 306" fill="none" xmlns="http://www.w3.org/2000/svg">
<g clipPath="url(#clip0_519_179)">
<path d="M312.549 0.176758H0.132812V200.262H312.549V0.176758Z" fill="#E6E6E6"/>
<path d="M303.615 25.2725H9.06641V188.425H303.615V25.2725Z" fill="white"/>
<path d="M312.416 0H0V13.2724H312.416V0Z" fill="white"/>
<path d="M9.8635 9.24603C11.2222 9.24603 12.3237 8.14457 12.3237 6.78586C12.3237 5.42714 11.2222 4.32568 9.8635 4.32568C8.50478 4.32568 7.40332 5.42714 7.40332 6.78586C7.40332 8.14457 8.50478 9.24603 9.8635 9.24603Z" fill="#3E9276"/>
<path d="M19.2004 9.24603C20.5591 9.24603 21.6606 8.14457 21.6606 6.78586C21.6606 5.42714 20.5591 4.32568 19.2004 4.32568C17.8417 4.32568 16.7402 5.42714 16.7402 6.78586C16.7402 8.14457 17.8417 9.24603 19.2004 9.24603Z" fill="#3E9276"/>
<path d="M28.5383 9.24603C29.897 9.24603 30.9985 8.14457 30.9985 6.78586C30.9985 5.42714 29.897 4.32568 28.5383 4.32568C27.1796 4.32568 26.0781 5.42714 26.0781 6.78586C26.0781 8.14457 27.1796 9.24603 28.5383 9.24603Z" fill="#3E9276"/>
<path d="M102.917 38.6921H45.3076V101.193H102.917V38.6921Z" fill="#E6E6E6"/>
<path d="M185.146 38.6921H127.536V101.193H185.146V38.6921Z" fill="#E6E6E6"/>
<path d="M267.374 38.6921H209.765V101.193H267.374V38.6921Z" fill="#E6E6E6"/>
<path d="M102.917 112.506H45.3076V175.007H102.917V112.506Z" fill="#E6E6E6"/>
<path d="M185.146 112.506H127.536V175.007H185.146V112.506Z" fill="#E6E6E6"/>
<path d="M267.374 112.506H209.765V175.007H267.374V112.506Z" fill="#E6E6E6"/>
<path d="M141.461 128.569L151.987 124.408L153.211 145.215C153.211 145.215 155.413 151.579 154.679 154.027C154.679 154.027 155.169 158.189 153.945 158.433C152.721 158.678 149.293 159.168 149.051 158.923C148.808 158.678 148.806 157.944 148.806 157.944C148.806 157.944 146.358 159.657 146.113 161.615C146.113 161.615 135.832 164.797 135.587 161.86C135.342 158.922 140.728 156.474 140.728 156.474L144.889 150.11L141.461 128.569Z" fill="#5141C6"/>
<path d="M163.738 128.569L174.262 124.408L175.486 145.215C175.486 145.215 177.689 151.579 176.955 154.027C176.955 154.027 177.444 158.189 176.22 158.433C174.996 158.678 171.568 159.168 171.326 158.923C171.084 158.678 171.081 157.944 171.081 157.944C171.081 157.944 168.633 159.657 168.388 161.615C168.388 161.615 158.107 164.797 157.863 161.86C157.618 158.922 163.003 156.474 163.003 156.474L167.164 150.11L163.738 128.569Z" fill="#5141C6"/>
<path d="M164.765 48.2197C164.765 48.2197 162.524 54.4823 165.121 57.3064L162.956 64.746C162.956 64.746 170.648 87.8223 168.45 91.0457C168.45 91.0457 160.245 95.1481 143.834 89.5804L150.5 63.7202L149.548 52.8047L150.867 47.6765L153.797 47.3857C153.797 47.3857 152.039 53.9788 155.262 55.0047C158.486 56.0305 161.63 47.5505 161.63 47.5505L164.765 48.2197Z" fill="#D321A1"/>
<path d="M61.2598 88.6463L64.0882 89.8034L77.5874 72.0618L81.8299 92.8887L84.6583 92.3746C86.4726 74.4188 87.9534 56.1043 86.1368 47.4421L75.6588 46.9919L70.9023 62.1644L68.588 72.4494L61.2598 88.6463Z" fill="#D72D1C"/>
<path d="M232.924 47.3C232.924 47.3 229.064 52.6662 229.253 54.8318C229.441 56.9973 231.889 92.3023 231.889 92.3023L237.632 92.5848L235.936 67.1651L237.348 60.2924L240.832 92.3023L247.893 92.4908L241.585 50.9721L240.361 47.3005L232.924 47.3Z" fill="#BF6534"/>
<path d="M254.74 133.751C253.715 132.521 251.953 131.856 250.261 131.496C250.31 131.343 245.116 130.27 245.028 130.49L243.07 128.931L237.053 132.055L233.672 129.753L232.102 130.31C232.166 130.033 227.226 130.889 227.226 130.889C226.283 130.923 225.078 130.982 223.729 131.086C219.005 131.449 218.641 143.684 218.641 143.684C220.814 142.795 223.132 142.31 225.479 142.253L226.756 156.887C233.324 156.324 240.211 156.979 247.351 158.583L250.698 147.079L258.495 144.047C258.495 144.047 257.163 136.658 254.74 133.751Z" fill="#3F3D56"/>
<path d="M79.3721 124.174L79.4766 124.258L79.5107 124.173C79.5385 124.171 79.5803 124.171 79.6367 124.174C79.7563 124.181 79.9263 124.2 80.1309 124.23C80.5393 124.289 81.0782 124.386 81.6143 124.493C82.1503 124.6 82.6825 124.716 83.0771 124.813C83.2747 124.862 83.4359 124.906 83.5459 124.941C83.5786 124.951 83.6055 124.961 83.627 124.969L83.6172 125L83.7266 125.023C85.0285 125.3 86.3604 125.793 87.1992 126.667L87.3604 126.846C88.3433 128.026 89.1119 130.129 89.6357 131.951C89.8969 132.859 90.0958 133.693 90.2295 134.299C90.2963 134.603 90.3471 134.849 90.3809 135.02C90.3961 135.097 90.4076 135.158 90.416 135.203L84.0693 137.671L84.0127 137.694L84.0068 137.754L81.2588 164.58C75.4478 163.283 69.8347 162.75 64.4766 163.197L63.4287 133.784L63.4248 133.685L63.3262 133.687C61.4313 133.733 59.5602 134.117 57.7998 134.817C57.803 134.746 57.807 134.652 57.8135 134.539C57.8292 134.263 57.8561 133.87 57.9004 133.397C57.9891 132.45 58.1482 131.184 58.4277 129.911C58.7076 128.636 59.1071 127.359 59.6748 126.385C60.2077 125.471 60.8779 124.84 61.7217 124.707L61.8936 124.687C63.0027 124.601 63.9964 124.553 64.7705 124.525V124.526L64.7842 124.523H64.7871C64.7891 124.523 64.7921 124.522 64.7959 124.521C64.8036 124.52 64.8153 124.518 64.8301 124.515C64.8598 124.51 64.9037 124.503 64.959 124.494C65.0699 124.475 65.2282 124.448 65.418 124.417C65.7983 124.354 66.305 124.273 66.8096 124.2C67.3145 124.126 67.8162 124.06 68.1875 124.026C68.3736 124.009 68.5238 124.001 68.624 124.003C68.6403 124.004 68.6547 124.006 68.667 124.007L68.6455 124.104L68.8174 124.042L70.0635 123.6L72.8076 125.467L72.8574 125.501L72.9102 125.474L77.8086 122.929L79.3721 124.174Z" fill="white" stroke="black" strokeWidth="0.2"/>
<path d="M363.162 134.639H390.783V119.859C390.783 116.197 389.328 112.684 386.738 110.094C384.148 107.504 380.635 106.049 376.972 106.049C373.31 106.049 369.797 107.504 367.207 110.094C364.617 112.684 363.162 116.197 363.162 119.859V134.639Z" fill="#631A1A"/>
<path d="M350.833 299.076H344.893L342.066 276.159H350.834L350.833 299.076Z" fill="#FFB6B6"/>
<path d="M352.349 297.136H340.649C338.672 297.136 336.776 297.922 335.377 299.32C333.979 300.718 333.194 302.614 333.193 304.591V304.833H352.349V297.136Z" fill="#851909"/>
<path d="M421.849 291.148L416.676 294.068L402.949 275.504L410.585 271.193L421.849 291.148Z" fill="#FFB6B6"/>
<path d="M422.215 288.714L412.027 294.464C410.305 295.436 409.039 297.052 408.509 298.957C407.979 300.862 408.227 302.9 409.2 304.622L409.319 304.832L426 295.416L422.215 288.714Z" fill="#851909"/>
<path d="M383.881 196.021L384.34 198.313C384.34 198.313 385.715 199.689 385.027 200.376C384.34 201.064 384.569 204.273 384.569 204.273C384.954 210.125 392.6 243.008 393.967 249.43C393.967 249.43 404.511 256.306 412.763 269.83C421.015 283.354 421.243 286.793 421.243 286.793L412.076 290.69L389.156 262.954C389.156 262.954 382.738 259.057 380.445 255.619C378.153 252.181 363.939 216.651 363.939 216.651L355.914 253.785C355.914 253.785 356.373 267.309 354.31 276.02C353.041 281.517 352.274 287.118 352.018 292.753L341.244 291.607C341.244 291.607 341.932 259.057 343.078 255.619C343.078 255.619 338.264 215.963 347.891 200.147L355.65 179.462L363.25 176.537L383.881 196.021Z" fill="#2F2E41"/>
<path d="M377.116 109.662C362.653 109.909 362.655 131.423 377.116 131.668C391.578 131.42 391.576 109.907 377.116 109.662Z" fill="#FFB8B8"/>
<path d="M365.984 120.094H368.443L369.112 118.42L368.777 120.094H382.221L381.785 116.592L385.053 120.094H388.313V118.196C388.314 116.73 388.026 115.278 387.466 113.924C386.906 112.569 386.085 111.338 385.049 110.3C384.013 109.263 382.783 108.44 381.429 107.878C380.075 107.316 378.623 107.026 377.157 107.025C375.691 107.024 374.239 107.312 372.885 107.872C371.53 108.432 370.299 109.253 369.261 110.289C368.224 111.325 367.401 112.555 366.839 113.909C366.277 115.263 365.987 116.715 365.986 118.181V118.196L365.984 120.094Z" fill="#631A1A"/>
<path d="M362.201 138.092L389.531 138.313L383.757 196.907C383.757 196.907 351.795 195.22 351.775 185.464L354.77 176.794L362.201 138.092Z" fill="#8A2022"/>
<path d="M390.706 202.571C390.286 202.056 389.984 201.456 389.821 200.812C389.658 200.168 389.638 199.496 389.762 198.844C389.887 198.191 390.153 197.574 390.543 197.036C390.932 196.497 391.434 196.051 392.014 195.728L390.826 185.412L396.919 183.162L398.392 197.753C398.867 198.763 398.956 199.913 398.641 200.984C398.327 202.056 397.63 202.975 396.684 203.568C395.738 204.161 394.607 204.387 393.506 204.204C392.404 204.02 391.408 203.439 390.706 202.571Z" fill="#FFB6B6"/>
<path d="M385.939 143.361L389.535 138.335C389.535 138.335 391.996 137.789 394.903 141.181C397.811 144.573 399.507 186.973 399.507 186.973L388.846 189.395L382.547 159.352L385.939 143.361Z" fill="#8A2022"/>
<path d="M325.699 189.341L326.492 227.011L350.878 239.898L395.288 231.967L396.379 192.811L368.226 182.897L325.699 189.341Z" fill="white"/>
<path d="M350.813 240.304L326.106 227.248L325.301 189.007L368.262 182.498L368.354 182.53L396.774 192.538L395.667 232.295L350.813 240.304ZM326.875 226.773L350.94 239.491L394.906 231.639L395.98 193.084L368.187 183.297L326.094 189.675L326.875 226.773Z" fill="#CACACA"/>
<path d="M350.333 199.555L350.238 199.517L325.555 189.703L325.842 188.979L350.43 198.755L396.325 192.425L396.432 193.197L350.333 199.555Z" fill="#CACACA"/>
<path d="M350.771 199.15L349.992 199.16L350.488 239.902L351.267 239.893L350.771 199.15Z" fill="#CACACA"/>
<path d="M347.214 197.605L338.316 193.998L381.15 187.172L390.048 190.779L347.214 197.605Z" fill="#CACACA"/>
<path d="M325.853 200.269L325.545 200.984L335.865 205.427L336.173 204.712L325.853 200.269Z" fill="#CACACA"/>
<path d="M330.525 213.12L330.217 213.835L340.536 218.278L340.844 217.563L330.525 213.12Z" fill="#6C63FF"/>
<path d="M190.018 241.675L190.81 279.344L215.196 292.232L259.607 284.301L260.697 245.145L232.544 235.231L190.018 241.675Z" fill="white"/>
<path d="M215.133 292.638L190.426 279.582L189.621 241.341L232.582 234.832L232.674 234.864L261.095 244.872L259.988 284.629L215.133 292.638ZM191.195 279.107L215.26 291.825L259.227 283.973L260.3 245.418L232.507 235.631L190.414 242.009L191.195 279.107Z" fill="#CACACA"/>
<path d="M214.653 251.889L214.557 251.851L189.874 242.037L190.161 241.313L214.75 251.089L260.644 244.759L260.751 245.53L214.653 251.889Z" fill="#CACACA"/>
<path d="M215.09 251.484L214.312 251.494L214.807 292.236L215.586 292.227L215.09 251.484Z" fill="#CACACA"/>
<path d="M209.378 249.052L202.636 246.332L245.47 239.506L252.211 242.227L209.378 249.052Z" fill="#CACACA"/>
<path d="M190.171 252.603L189.863 253.318L200.183 257.761L200.491 257.046L190.171 252.603Z" fill="#CACACA"/>
<path d="M194.845 265.453L194.537 266.169L204.857 270.612L205.165 269.897L194.845 265.453Z" fill="#6C63FF"/>
<path d="M232.383 246.84L233.304 290.568L261.612 305.528L313.165 296.322L314.431 250.867L281.75 239.36L232.383 246.84Z" fill="#F1F2F1"/>
<path d="M261.537 306L232.856 290.843L231.922 246.452L281.793 238.896L281.899 238.934L314.891 250.551L313.606 296.702L261.537 306ZM233.749 290.293L261.685 305.055L312.723 295.941L313.969 251.185L281.705 239.824L232.843 247.227L233.749 290.293Z" fill="#3F3D56"/>
<path d="M260.981 258.696L260.871 258.652L232.217 247.26L232.551 246.42L261.093 257.768L314.37 250.42L314.493 251.315L260.981 258.696Z" fill="#3F3D56"/>
<path d="M261.488 258.227L260.584 258.238L261.159 305.533L262.063 305.522L261.488 258.227Z" fill="#3F3D56"/>
<path d="M255.316 255.424L247.031 252.246L296.754 244.322L305.04 247.501L255.316 255.424Z" fill="#B1B0BB" fillOpacity="0.77"/>
<path d="M232.563 259.525L232.205 260.355L244.185 265.513L244.542 264.683L232.563 259.525Z" fill="#3F3D56"/>
<path d="M237.986 274.443L237.629 275.273L249.608 280.431L249.966 279.6L237.986 274.443Z" fill="white"/>
<path d="M339.525 195.57C340.127 195.288 340.659 194.877 341.084 194.367C341.51 193.857 341.818 193.26 341.988 192.618C342.157 191.976 342.184 191.304 342.066 190.65C341.948 189.997 341.689 189.377 341.305 188.835L346.84 180.049L342.322 175.384L334.68 187.9C333.811 188.605 333.232 189.603 333.051 190.707C332.869 191.81 333.099 192.942 333.696 193.887C334.294 194.832 335.217 195.526 336.291 195.836C337.365 196.146 338.516 196.052 339.525 195.571V195.57Z" fill="#FFB6B6"/>
<path d="M366.4 140.401L362.435 137.789C362.435 137.789 359.375 138.475 356.121 144.734C352.866 150.994 339.742 178.98 339.742 178.98L345.137 184.456L359.529 162.5L366.4 140.401Z" fill="#8A2022"/>
</g>
<defs>
<clipPath id="clip0_519_179">
<rect width="426" height="306" fill="white"/>
</clipPath>
</defs>
</svg>
