<svg width="49" height="32" viewBox="0 0 49 32" fill="none" xmlns="http://www.w3.org/2000/svg">
<g id="mastercard-color_large">
<rect id="card_bg" x="0.5" width="48" height="32" rx="4" fill="#F2F0EC"/>
<g id="mastercard">
<g id="Group" opacity="0.01">
<rect id="Rectangle" x="5.15039" y="3.19995" width="38.71" height="25.6" fill="white"/>
</g>
<rect id="Rectangle_2" x="19.4004" y="7.65991" width="10.21" height="16.68" fill="#F26122"/>
<path id="Path" d="M20.5007 16.0001C20.4839 12.7536 21.9584 9.67911 24.5007 7.66006C20.151 4.23935 13.9027 4.73608 10.148 8.80106C6.39337 12.866 6.39337 19.1341 10.148 23.1991C13.9027 27.264 20.151 27.7608 24.5007 24.3401C21.9584 22.321 20.4839 19.2465 20.5007 16.0001Z" fill="#EA1D25"/>
<path id="Shape" fill-rule="evenodd" clip-rule="evenodd" d="M40.6404 22.2299V22.5699H40.5804V22.2299H40.4404V22.1599H40.7904V22.2299H40.6404ZM41.3204 22.1599V22.5699H41.2504V22.2599L41.1404 22.5299H41.0604L40.9404 22.2599V22.5699H40.8704V22.1599H40.9704L41.1004 22.4499L41.2204 22.1599H41.3204Z" fill="#F69E1E"/>
<path id="Path_2" d="M41.66 16C41.6574 20.0593 39.3389 23.7614 35.6879 25.5358C32.0369 27.3102 27.6935 26.846 24.5 24.34C29.1001 20.7179 29.8967 14.0543 26.28 9.44999C25.7616 8.78326 25.1638 8.18216 24.5 7.65999C27.6935 5.15398 32.0369 4.68973 35.6879 6.46416C39.3389 8.23859 41.6574 11.9406 41.66 16Z" fill="#F69E1E"/>
</g>
</g>
</svg>
