<svg width="49" height="32" viewBox="0 0 49 32" fill="none" xmlns="http://www.w3.org/2000/svg">
<g id="paypal-color-large">
<rect id="card_bg" x="0.5" width="48" height="32" rx="4" fill="white"/>
<path id="card_bg-2" fillRule="evenodd" clipRule="evenodd" d="M4.5 0H44.5C46.7091 0 48.5 1.79086 48.5 4V28C48.5 30.2091 46.7091 32 44.5 32H4.5C2.29086 32 0.5 30.2091 0.5 28V4C0.5 1.79086 2.29086 0 4.5 0ZM46.5 4C46.5 2.89543 45.6046 2 44.5 2H4.5C3.39543 2 2.5 2.89543 2.5 4V28C2.5 29.1046 3.39543 30 4.5 30H44.5C45.6046 30 46.5 29.1046 46.5 28V4Z" fill="#CCCCCB"/>
<g id="paypal">
<path id="Path" d="M20.8405 25.3199L21.1905 23.1199H20.4105H16.7305L19.2905 6.85993C19.2973 6.80955 19.3222 6.76336 19.3605 6.72993C19.4007 6.69887 19.4497 6.68136 19.5005 6.67993H25.7105C27.7805 6.67993 29.2005 7.10993 29.9505 7.95993C30.2823 8.31646 30.5135 8.75473 30.6205 9.22993C30.7371 9.80744 30.7371 10.4024 30.6205 10.9799V11.4799L30.9705 11.6799C31.2369 11.8127 31.4774 11.9922 31.6805 12.2099C31.9861 12.5789 32.1835 13.0255 32.2505 13.4999C32.3254 14.1201 32.2984 14.7484 32.1705 15.3599C32.0386 16.1027 31.778 16.8168 31.4005 17.4699C31.0954 17.9936 30.683 18.4468 30.1905 18.7999C29.6947 19.138 29.1428 19.3852 28.5605 19.5299C27.9068 19.6948 27.2346 19.7755 26.5605 19.7699H26.0705C25.727 19.77 25.3945 19.8903 25.1305 20.1099C24.8651 20.3335 24.6908 20.6466 24.6405 20.9899V21.1899L24.0305 25.0699V25.2199C24.0377 25.2461 24.0377 25.2738 24.0305 25.2999H23.9705L20.8405 25.3199Z" fill="#253D80"/>
<path id="Path_2" d="M31.3002 11.0801L31.2402 11.4501C30.4202 15.6501 27.6102 17.1101 24.0302 17.1101H22.2102C21.7724 17.1095 21.3991 17.4276 21.3302 17.8601L20.4002 23.7801L20.1302 25.4601C20.11 25.5946 20.149 25.7313 20.2372 25.8349C20.3254 25.9384 20.4542 25.9987 20.5902 26.0001H23.8302C24.2144 25.9997 24.5411 25.7197 24.6002 25.3401V25.1801L25.2102 21.3101V21.1001C25.2648 20.722 25.5883 20.4411 25.9702 20.4401H26.5002C29.6302 20.4401 32.0902 19.1701 32.8002 15.4401C33.1844 14.1652 32.9474 12.784 32.1602 11.7101C31.9105 11.4539 31.6198 11.241 31.3002 11.0801V11.0801Z" fill="#189BD7"/>
<path id="Path_3" d="M30.4404 10.7401L30.0604 10.6401L29.6404 10.5601C29.1108 10.4809 28.5758 10.4441 28.0404 10.4501H23.1604C23.0464 10.447 22.9333 10.471 22.8304 10.5201C22.5985 10.6286 22.4369 10.8467 22.4004 11.1001L21.4004 17.6701V17.8601C21.4693 17.4276 21.8425 17.1096 22.2804 17.1101H24.1004C27.6804 17.1101 30.4904 15.6501 31.3104 11.4501L31.3704 11.0801C31.155 10.9688 30.9309 10.8751 30.7004 10.8001L30.4404 10.7401Z" fill="#242E65"/>
<path id="Path_4" d="M22.4004 11.1C22.4369 10.8466 22.5985 10.6286 22.8304 10.52C22.9333 10.4709 23.0464 10.4469 23.1604 10.45H28.0404C28.5758 10.444 29.1108 10.4808 29.6404 10.56L30.0604 10.64L30.4404 10.74L30.6304 10.8C30.8609 10.8751 31.085 10.9687 31.3004 11.08C31.6254 9.83063 31.3275 8.50118 30.5004 7.51C29.5004 6.45 27.8604 6 25.7204 6H19.5004C19.0625 5.99947 18.6893 6.31756 18.6204 6.75L16.0304 23.16C16.0072 23.3148 16.0523 23.472 16.154 23.5909C16.2556 23.7098 16.4039 23.7788 16.5604 23.78H20.4004L21.4004 17.67L22.4004 11.1Z" fill="#253D80"/>
</g>
</g>
</svg>
