<svg width="543" height="505" viewBox="0 0 543 505" fill="none" xmlns="http://www.w3.org/2000/svg">
<path d="M209.775 478.475C194.75 478.475 180.75 472.887 170.387 462.725C157.25 449.875 151.637 430.3 155.737 411.637C159.625 393.937 171.3 380.412 187.775 374.537C210.312 366.5 235.075 372.787 250.062 389.962C260.712 402.175 265.525 418.65 263.275 435.187C259.837 460.275 237.337 478.475 209.775 478.475ZM208.075 395.962C204.15 395.962 200.137 396.675 196.175 398.087C184.975 402.087 181.325 411.65 180.15 417C177.887 427.312 180.85 437.987 187.862 444.862C193.537 450.425 201.325 453.475 209.775 453.475C222.575 453.475 236.562 446.025 238.5 431.8C239.8 422.287 237.212 413.262 231.237 406.4C225.437 399.762 217 395.962 208.075 395.962Z" fill="black"/>
<path d="M374.863 478.475C359.825 478.475 345.838 472.888 335.463 462.725C322.325 449.863 316.713 430.288 320.813 411.638C324.7 393.938 336.375 380.413 352.85 374.538C375.375 366.488 400.138 372.788 415.138 389.963C425.8 402.175 430.6 418.65 428.35 435.188C424.913 460.275 402.425 478.475 374.863 478.475ZM373.15 395.963C369.225 395.963 365.213 396.675 361.25 398.088C350.05 402.088 346.4 411.65 345.225 417C342.963 427.313 345.925 437.988 352.938 444.863C358.613 450.425 366.4 453.475 374.863 453.475C387.65 453.475 401.638 446.025 403.575 431.8C404.875 422.288 402.288 413.263 396.313 406.4C390.513 399.763 382.075 395.963 373.15 395.963Z" fill="black"/>
<path d="M328.012 354.85C314.662 354.85 301.425 354.525 289.35 354.225L271.625 353.863C236.375 353.388 177.362 352.588 155.15 322.1C143.7 306.338 134.825 275.7 132.525 244.013C131.375 228.3 131 211.4 130.65 195.05C129.337 135.838 127.962 74.6001 91.0373 64.0376C75.9623 59.7376 63.5998 60.2876 44.9373 61.0876L41.8623 61.2251C35.1998 61.5376 29.1248 56.1751 28.8373 49.2626C28.5498 42.3626 33.8873 36.5376 40.7873 36.2376L43.8498 36.1001C63.4498 35.2501 78.9622 34.5626 97.8997 40.0001C126.975 48.3126 141.025 72.1751 148.05 102.988C152.95 102.938 160.912 102.825 171.025 102.7C221.925 102.013 327.862 100.613 369.562 101.588C375.825 101.725 381.937 101.788 387.85 101.838C432.275 102.25 478.212 102.675 479.175 152.463C479.962 194.475 465.712 244.675 461.312 259.075C460.137 262.938 459.037 266.713 457.962 270.4C452.9 287.75 448.125 304.125 438.312 319.3C427.2 336.463 409.012 347.538 385.687 351.338C368.65 354.088 348.2 354.85 328.012 354.85ZM152.175 127.925C154.612 148.975 155.125 171.863 155.625 194.488C155.975 210.525 156.35 227.113 157.45 242.188C159.375 268.713 166.737 295.513 175.362 307.375C190.212 327.738 245.425 328.488 271.975 328.85L289.987 329.213C319.262 329.95 355.7 330.863 381.662 326.638C397.825 324.013 410.15 316.763 417.312 305.7C425.15 293.588 429.225 279.6 433.962 263.388C435.062 259.6 436.187 255.725 437.4 251.763C445.887 223.938 454.75 183.375 454.162 152.925C453.737 130.438 440.387 127.313 387.612 126.825C381.587 126.775 375.362 126.713 368.975 126.563C327.775 125.613 222.112 127.013 171.35 127.675C163.575 127.788 157.037 127.863 152.175 127.925Z" fill="black"/>
</svg>
